<svg xmlns="http://www.w3.org/2000/svg" viewBox="0 0 300 301"><path d="M244.6 2.3c-2.2 1.2-4.9 3.8-6 5.7-2.1 3.5-2.1 4.5-2.4 125.3l-.3 121.8 2.6 4.4c3.2 5.5 6.8 7.5 13.7 7.5 6.8 0 11.3-2.7 13.8-8.3 1.8-3.9 2-6.9 2-41.7v-37.6l5.4-2.6c7.9-3.9 16.7-12.6 20.9-20.5 12.4-23.7 3.5-52.3-19.9-64.5l-6.3-3.3-.3-39.2c-.3-44.4 0-42.5-8.8-47.1-5.6-2.8-9.4-2.8-14.4.1zm-27.9 29c-17.6 18.5-31.8 27.8-54 35.2-18.8 6.3-45.2 9.4-80.2 9.5-21.5.1-37.6 1.5-42.8 3.8s-10.7 7.5-13 12.5c-1.4 2.9-2.5 3.7-5.5 4.2-9.8 1.7-15.6 5.5-19.3 12.6-1.7 3.4-1.9 6-1.9 24.5 0 19 .2 21.1 2.1 25 3.5 7.4 8.3 10.6 18.9 12.8 1.9.4 3.2 2.1 5.5 6.8 4.2 8.7 8.1 11.6 18.8 13.6l8.6 1.6 1 4.6c2.7 12.8 6.1 36.3 10.2 69.9 2.3 19.8 3.2 23.3 6.7 27.2 2.5 2.8 3.6 3.2 11.7 4.1 5 .5 14.1.8 20.3.6 11.2-.3 11.4-.3 13.9-3.3 2.5-2.8 2.5-3.3 1.9-12-.3-4.9-1.8-14.4-3.1-21-1.4-6.6-2.8-13.1-3.1-14.5-.4-2.3.2-2.8 6.3-5.7 17.3-8 23.2-22.1 15.5-37.5-1.7-3.4-2.9-6.5-2.6-6.7.9-.9 22.7 3.9 31.8 7.1 20.4 6.9 33.9 14.9 50.4 29.7l10.2 9.2V134c0-61-.1-111-.2-111-.2 0-3.8 3.7-8.1 8.3z"/></svg>