<svg version="1.1" id="Слой_1" xmlns="http://www.w3.org/2000/svg" x="0" y="0" viewBox="0 0 800 800" xml:space="preserve"><style>.st0{fill:#d0ab81}</style><g transform="matrix(.1 0 0 -.1 0 800)"><path d="M3622.8 7999.2c-769-87-1476-382-2092-871-172-136-484-449-624-624-461-579-732-1220-838-1985-20-140-22-204-22-505 0-272 3-372 17-472 108-795 383-1448 864-2053 120-151 440-469 603-599 406-324 868-567 1360-715 238-72 518-126 785-151 167-15 611-13 783 5 418 44 787 139 1167 301 658 282 1253 759 1665 1334 122 170 202 302 296 485 252 488 394 979 444 1530 15 163 12 559-5 737-114 1190-746 2244-1745 2913-525 351-1050 553-1690 652-147 23-201 26-505 29-245 2-374-1-463-11zm825-101c918-94 1750-500 2404-1170 601-618 960-1383 1071-2284 21-169 18-732-5-900-90-662-292-1208-641-1725-248-368-612-737-982-998-821-577-1807-816-2796-677-1037 145-1948 692-2596 1557-295 392-535 902-656 1388-282 1139-14 2391 712 3324 601 772 1486 1298 2447 1455 129 21 264 35 470 50 92 7 429-5 572-20z"/><path d="M3979.8 7845.2l-29-29v-277c0-281 3-304 39-332 28-21 87-15 118 11l28 24 3 264c4 293-1 329-48 353-44 23-78 19-111-14zm-1866-490c-31-20-48-55-45-94 2-31 252-466 281-488 35-28 87-20 120 17 40 47 27 84-113 330-69 122-132 226-139 233-27 22-71 23-104 2zm3772 8c-27-13-27-13-167-274-133-249-140-274-87-319 40-34 92-35 120-3 28 31 257 455 265 490 9 41-13 83-51 101-37 18-51 19-80 5zm-2040-466c-16-19-46-47-67-61-30-19-38-31-38-54 0-26 3-29 23-22 12 4 39 18 60 31l37 23v-350h60v470l-22-1c-13 0-36-15-53-36zm299 23c-56-25-103-108-73-127 27-17 59-10 59 11 0 12 11 32 25 45 32 33 83 34 113 2 46-49 25-94-96-204-84-77-122-129-122-167 0-14 20-16 155-16h155v60h-225l99 92c54 51 105 107 112 125 28 65 11 133-41 167-36 24-122 30-161 12z"/><path class="st0" d="M4105.8 4241c-.2 29.9-5 891.2-5 891.2-4 779-7 894-20 902-20 13-37 12-61 0-19-10-19-31-19-906 0-752.8-6.8-867.2-9.6-890m-8-1.7c-17.9 12.8-251.2 408.7-663.4 1122.7-355 616-656 1130-667 1143-25 26-31 27-61 6-17-12-22-24-19-43 2-14 298-534 657-1155 0 0 640.4-1107.3 652.8-1128.7"/><path d="M753.8 5987.2c-51-9-83-102-50-146 14-19 461-270 497-280 30-8 85 15 99 41 15 28 14 84-1 105-16 20-466 272-499 279-13 3-34 3-46 1zm6527 0c-42-16-473-278-485-296-23-33-18-81 12-117 44-53 74-43 335 114 125 75 234 147 243 159 47 67-28 168-105 140zm-537-1729c-33-17-73-69-73-97 0-13 27-27 58-27 6 0 12 8 12 18 0 27 42 62 73 62 34 0 67-32 67-65 0-34-33-65-70-65-19 0-30-5-30-14 0-8-3-21-6-30-5-13 2-16 35-16 83 0 122-86 65-144-38-37-84-36-118 5-14 17-26 37-26 46 0 11-6 14-22 9-13-3-29-6-36-6-16 0-6-46 19-81 21-30 85-59 127-59 45 1 110 36 132 72 13 21 20 51 20 82 0 41-5 53-33 81l-33 33 23 26c83 97-62 230-184 170zm-5613-26c-90-61-94-214-6-270 40-25 125-21 157 8l22 19-7-45c-8-53-33-91-69-104-34-12-74 6-87 39-7 19-17 25-41 25-30 0-31-1-25-32 3-18 20-45 36-60 26-24 39-28 88-28 120 0 166 66 167 240 0 86-4 112-20 144-28 55-64 78-127 84-44 3-59 0-88-20zm141-64c54-58 17-164-58-164-67 0-106 79-71 143 28 53 89 63 129 21zm-1053-78c-43-32-45-109-5-146 20-19 37-20 309-20h289l24 25c19 18 25 35 25 65s-6 47-25 65l-24 25h-288c-220-1-292-4-305-14zm7023-12c-32-41-31-96 2-131 20-23 22-23 318-23h298l20 26c30 38 28 98-4 129l-24 25h-590l-20-26zm-6071-1607c-86-46-430-254-452-275-40-37-39-93 2-134 26-25 36-30 65-25 30 5 454 248 497 285 24 20 33 74 18 103-28 54-79 72-130 46zm5657-18c-21-12-47-61-47-88 0-11 10-31 23-45 31-36 475-286 506-286 65 0 113 90 78 144-9 14-116 81-245 155-233 133-269 147-315 120zm-2804-969c-74-17-107-63-124-171-12-77 2-193 29-228 88-119 264-78 272 64 5 81 0 97-40 137-39 40-41 40-100 36-40-3-66-11-81-24l-22-19 7 40c19 106 111 150 154 75 13-24 24-30 50-30 37 0 37-2 16 50-23 58-91 87-161 70zm84-240c60-55 24-170-53-170-73 0-113 112-59 165 30 31 82 33 112 5zm1506 16c-51-44-41-75 91-311 160-284 159-283 200-290 39-8 89 14 107 46 6 12 9 37 6 55-6 34-249 476-279 506-27 27-91 23-125-6zm-3233 2c-15-8-79-102-169-248-160-258-167-278-118-328 20-20 37-27 67-27 60 0 47-16 297 394 38 62 63 115 63 132 0 61-82 107-140 77zm1623-433c-17-7-36-22-42-34-16-28-15-565 1-594 28-53 97-64 145-23l28 24 3 265c3 275-3 339-36 355-34 18-68 20-99 7z"/><ellipse class="st0" cx="4050" cy="4027.2" rx="22.5" ry="23"/></g></svg>