<?xml version="1.0" encoding="utf-8"?>
<!-- Generator: Adobe Illustrator 19.2.1, SVG Export Plug-In . SVG Version: 6.00 Build 0)  -->
<svg version="1.1" id="Слой_1" xmlns="http://www.w3.org/2000/svg" xmlns:xlink="http://www.w3.org/1999/xlink" x="0px" y="0px"
	 viewBox="0 0 512 512" style="enable-background:new 0 0 512 512;" xml:space="preserve">
<style type="text/css">
	.st0{fill:#E7C095;}
</style>
<g transform="translate(0.000000,512.000000) scale(0.100000,-0.100000)">
	<path class="st0" d="M3080,4525c69-9,163-24,210-34c47-11,119-26,160-35c105-23,334-108,464-173c93-47,157-85,332-203
		c80-54,279-251,356-354c125-168,228-393,262-575c25-129,22-440-4-550c-42-173-145-399-238-520c-62-80-115-183-140-273
		c-56-203-26-492,79-771c63-166,64-167,50-167c-7,0-46,15-89,34c-205,91-270,119-307,133c-22,7-78,31-125,52s-132,59-190,84
		c-58,24-143,61-190,82c-183,81-157,77-305,39c-214-55-435-88-449-66c-3,5,11,24,30,43c20,19,52,57,72,84c20,28,39,52,42,55
		s16,29,29,58c14,29,30,57,36,62s94,23,196,40c101,17,207,38,235,46l51,14l89-46c49-26,96-52,104-59s26-16,39-20s46-20,73-36
		c26-16,100-56,164-90c87-46,114-56,110-42c-3,10-10,41-16,68c-5,28-19,93-30,145c-54,250-27,471,69,583c46,54,141,206,191,307
		c46,92,97,235,119,332c15,66,14,243-3,330c-18,90-69,246-99,299c-12,22-31,57-43,78c-54,99-175,238-286,327c-75,61-255,184-269,184
		c-4,0-32,14-61,31c-71,42-292,131-383,154c-27,7-102,27-165,44c-135,37-347,61-533,61c-197,0-324-21-522-86
		c-214-69-360-139-532-255c-40-27-75-49-79-49c-6,0-78-60-173-144c-61-54-155-154-202-216c-107-139-192-339-205-483l-7-68l-109-57
		c-61-31-136-73-167-93c-105-66-101-69-101,69c0,66,7,156,15,200c19,101,85,294,127,374c18,33,41,77,51,96c35,67,171,238,262,328
		c107,106,258,222,398,305c54,33,102,59,106,59s42,18,84,40c191,101,566,203,857,233C2621,4544,2966,4539,3080,4525z M1868,3039
		c126-13,374-71,449-105c32-14,82-35,111-46s76-35,105-55c28-19,62-39,74-44c62-24,274-221,347-324c46-63,128-232,152-310
		c26-86,26-381,1-475c-25-93-100-242-163-325c-86-116-240-254-357-320c-230-132-422-192-717-226c-179-20-439,2-649,55
		c-60,16-27,26-316-96c-38-16-103-45-143-64c-40-18-77-34-83-34s-53-20-106-45c-97-46-133-55-133-32c0,6,15,51,33,97
		c42,106,55,160,65,273c8,93-1,235-19,277c-12,29-91,163-100,170c-31,25-116,213-143,317c-24,92-22,337,3,428
		c50,179,145,338,283,471c84,81,185,164,200,164c6,0,25,10,42,23c73,55,289,149,399,173c39,9,92,20,117,26
		C1480,3048,1693,3058,1868,3039z"/>
</g>
</svg>
