<svg xmlns="http://www.w3.org/2000/svg" viewBox="0 0 980 718"><path d="M291.5 5l-68 .6-9.7 3.3c-21.7 7.4-43.4 23.7-55 41.3-10.2 15.2-13 24.1-14.8 46.4-1.2 14.5-2.7 282.4-1.6 282.4.4 0 3.9-2.4 7.9-5.4 14.6-10.9 25-14.2 41.2-13.1 5.5.3 11 .9 12.3 1.2l2.2.5V244.4c0-111.5.5-149.4 1.9-149.4 1.2 0 56.4 54.2 172.1 169 63.5 63 120.9 119.3 127.4 125.2 13.1 11.8 19.3 15.6 30.6 18.7 26.3 7.2 55.4 3.1 72-10.3 12.2-10 49.5-46.1 138-134.1 48.7-48.4 106.7-106 129-128l40.5-40 .7 4c1.3 7.5 2.1 336.8.9 386-1.1 46.6-1.7 54-4.7 60.7-2 4.4-10 10.8-18.1 14.5l-5.6 2.6-49.6.8c-27.3.4-115.2.8-195.3.8L500 565v6.2c-.1 15.8-13.1 34.5-33.7 48.3l-9.8 6.5h199c109.5-.1 210.3-.5 224-1 28.3-1 32.2-1.8 46.4-8.6 25.1-12 43.8-33.4 52.7-60.1l2.5-7.8 1-61c1.3-79.2.5-377.5-1-394-1.6-16.6-4.2-26.2-9.8-36.2C958.2 34 935.4 16.4 907 7.8c-6.1-1.9-10.9-2.1-76-2.8-77.7-.9-434.5-.9-539.5 0zm591.8 63.7c5.3.3 9.7.9 9.7 1.2 0 5.6-266.5 273.9-299.1 301.1-7.8 6.5-17.2 9.5-29.9 9.5s-21.2-2.7-30.3-9.6c-9.3-7-72.8-69.2-162.3-159.1-108.3-108.7-139.6-141-137.9-142.6.4-.4 25.9-1 56.8-1.3 69.4-.8 579.5-.1 593 .8z"/><path d="M181.4 410.3c-2.6 2.3-2.7 2.9-3.5 15.8-.4 7.4-.8 30.1-.8 50.6l-.1 37.2-4.2.5c-2.4.3-31.3.7-64.3 1-34 .3-63 1-66.9 1.6-8.8 1.3-15.3 4.8-23.8 12.9-5.1 4.7-7.8 8.3-10.6 13.9l-3.7 7.6v13c0 11.1.4 14.1 2.3 19.6 5.3 15.3 19 26.7 34.7 29 3.9.5 35.8 1.5 71 2.1 35.2.6 64.1 1.3 64.3 1.4.2.2.7 21.2 1.2 46.6.6 26.6 1.4 48.3 2 50.9 2.1 8.5 5.5 9.8 14.3 5.4 33.3-16.8 237.2-134.5 253.4-146.3 4.9-3.6 6.2-7 3.9-10.5-.8-1.4-5.9-5.3-11.3-8.9C404.9 531.2 190.9 408 186.1 408c-1.1 0-3.2 1-4.7 2.3z"/></svg>