<?xml version="1.0" encoding="utf-8"?>
<!-- Generator: Adobe Illustrator 19.2.1, SVG Export Plug-In . SVG Version: 6.00 Build 0)  -->
<svg version="1.1" id="Слой_1" xmlns="http://www.w3.org/2000/svg" xmlns:xlink="http://www.w3.org/1999/xlink" x="0px" y="0px"
	 viewBox="0 0 980 718" style="enable-background:new 0 0 980 718;" xml:space="preserve">
<g transform="translate(0.000000,718.000000) scale(0.100000,-0.100000)">
	<path d="M2915,7130l-680-6l-97-33c-217-74-434-237-550-413c-102-152-130-241-148-464c-12-145-27-2824-16-2824c4,0,39,24,79,54
		c146,109,250,142,412,131c55-3,110-9,123-12l22-5v1178c0,1115,5,1494,19,1494c12,0,564-542,1721-1690c635-630,1209-1193,1274-1252
		c131-118,193-156,306-187c263-72,554-31,720,103c122,100,495,461,1380,1341c487,484,1067,1060,1290,1280l405,400l7-40
		c13-75,21-3368,9-3860c-11-466-17-540-47-607c-20-44-100-108-181-145l-56-26l-496-8c-273-4-1152-8-1953-8l-1458-1v-62
		c-1-158-131-345-337-483l-98-65h1990c1095,1,2103,5,2240,10c283,10,322,18,464,86c251,120,438,334,527,601l25,78l10,610
		c13,792,5,3775-10,3940c-16,166-42,262-98,362c-131,233-359,409-643,495c-61,19-109,21-760,28C7533,7139,3965,7139,2915,7130z
		 M8833,6493c53-3,97-9,97-12c0-56-2665-2739-2991-3011c-78-65-172-95-299-95s-212,27-303,96c-93,70-728,692-1623,1591
		C2631,6149,2318,6472,2335,6488c4,4,259,10,568,13C3597,6509,8698,6502,8833,6493z"/>
	<path d="M1814,3077c-26-23-27-29-35-158c-4-74-8-301-8-506l-1-372l-42-5c-24-3-313-7-643-10c-340-3-630-10-669-16
		c-88-13-153-48-238-129c-51-47-78-83-106-139l-37-76v-130c0-111,4-141,23-196c53-153,190-267,347-290c39-5,358-15,710-21
		c352-6,641-13,643-14c2-2,7-212,12-466c6-266,14-483,20-509c21-85,55-98,143-54c333,168,2372,1345,2534,1463c49,36,62,70,39,105
		c-8,14-59,53-113,89c-344,225-2484,1457-2532,1457C1850,3100,1829,3090,1814,3077z"/>
</g>
</svg>
