<?xml version="1.0" encoding="utf-8"?>
<!-- Generator: Adobe Illustrator 19.2.1, SVG Export Plug-In . SVG Version: 6.00 Build 0)  -->
<svg version="1.1" id="Capa_1" xmlns="http://www.w3.org/2000/svg" xmlns:xlink="http://www.w3.org/1999/xlink" x="0px" y="0px"
	 viewBox="0 0 612 612" style="enable-background:new 0 0 612 612;" xml:space="preserve">
<style type="text/css">
	.st0{fill:#D5AA82;}
</style>
<g>
	<path class="st0" d="M140.8,364.2c0.2-0.2,0.6-0.3,0.7-0.6c1.7-7.3,6.7-12.3,11.8-17.4c22.8-22.7,45.6-45.5,68.3-68.3
		c42.7-42.7,85.3-85.5,128-128.2c7.9-7.9,14.6-7.9,22.6,0.1c34.5,34.5,68.9,68.9,103.4,103.4c7.9,7.9,7.9,14.7,0,22.6
		c-35.2,35.3-70.5,70.5-105.7,105.8c-10.5,10.5-20.8,21.3-31.3,32.1c1.1,0.9,2.3,0.5,3.4,0.5c40.1,0,80.1,0,120.2,0
		c9.1,0,15.7,4.1,18.4,11.5c4.5,12-3.7,23.5-17,24.2c-0.9,0-1.8,0-2.7,0c-78.4,0-156.7,0-235.1,0c-12.8,0-23.5-4.6-32.2-13.9
		c-10.9-11.6-22-23.2-32.9-34.8c-7.5-8.1-16.5-15.2-19.9-26.4C140.8,371.3,140.8,367.8,140.8,364.2z M255.2,414.2
		c10.9,0,21.8,0,32.6,0c1.9,0,3.3-0.5,4.7-1.9c12.6-12.9,25.4-25.8,38.1-38.7c4.4-4.5,4.4-7.6-0.1-12.2
		c-21.7-22.1-43.3-44.3-65-66.4c-4.7-4.8-7.6-4.8-12.4,0c-22.9,22.9-45.8,45.8-68.8,68.7c-4.9,4.9-4.8,7.7-0.2,12.5
		c11.5,12,23,24.1,34.4,36.2c1.3,1.4,2.6,1.7,4.3,1.7C233.7,414.2,244.5,414.2,255.2,414.2z"/>
</g>
</svg>
