<svg version="1.1" id="Слой_1" xmlns="http://www.w3.org/2000/svg" x="0" y="0" viewBox="0 0 1024 1024" xml:space="preserve"><style>.st0{fill:#e41a4c}</style><path class="st0" d="M714.4 263c-7.6 2.1-36.2 20.8-62.1 40.3-40.7 30.8-78.5 64.3-121.7 108.1l-26.7 26.9-17.5-22c-19.7-24.5-26.7-33.7-55.3-71.3-10.7-14.2-21.8-26.9-24.3-28-18.7-8.6-62.1 36.8-64.6 67.8-1.4 16.7 7.4 40.7 27.5 74.6 10.3 17.5 31.3 46.9 45.4 63.5l8.2 9.7-10.5 13.6c-74 96-122.3 186.3-113.7 212.4 5.8 17.5 64.3 47.5 92.5 47.5 12.5 0 14.4-1.6 23.8-20.3C433 750.2 476.3 676 500.8 639c9.7-14.6 11.1-16 14.2-13.6 1.9 1.4 13 10.3 24.7 19.7 26.1 21.2 49.8 37.6 69.5 47.9 17.1 9.2 28 10.3 41.1 4.3 26.5-11.9 50.4-60.9 35.8-72.8-8.4-6.6-88.6-84.3-98.3-95-3.1-3.5-2.5-4.5 12.1-20.6 35.2-39.5 58.2-61.7 163.8-158.9 18.5-16.7 34.1-32.3 34.7-34.7 5.1-16-15.8-41.7-41.5-50.8-10-3.8-32.4-4.4-42.5-1.5z"/><path class="st0" d="M520.5 193.7c-175.5 0-318.6 143.1-318.6 318.6 0 69.9 22.7 134.6 61.2 187.2 9.3-15.9 18.4-31.9 25.1-49.1C264.6 610.3 251 563.8 251 514c0-149.2 121.5-270.7 270.7-270.7 36.2 0 70.8 7.2 102.4 20.2 13-12.1 26.4-23.9 39.6-35.8-43.1-21.7-91.7-34-143.2-34zm288.3 182.7c-5.6 5.9-11.2 11.8-17 17.5-6 5.9-12.3 13-18.9 19.5 12.5 31.1 19.5 65.1 19.5 100.7.5 149.2-121 270.7-270.7 270.7-15.3 0-30.3-1.4-44.9-3.9-2.6 6.8-5.9 13.4-8.6 19.8-3.4 8-7.2 15.9-11.1 23.7 20.5 4.2 41.7 6.6 63.4 6.6 175.5 0 318.6-143.1 318.6-318.6.1-48.7-10.8-94.8-30.3-136z"/></svg>