<?xml version="1.0" encoding="utf-8"?>
<!-- Generator: Adobe Illustrator 19.2.1, SVG Export Plug-In . SVG Version: 6.00 Build 0)  -->
<svg version="1.1" id="Слой_1" xmlns="http://www.w3.org/2000/svg" xmlns:xlink="http://www.w3.org/1999/xlink" x="0px" y="0px"
	 viewBox="0 0 512 512" style="enable-background:new 0 0 512 512;" xml:space="preserve">
<g transform="translate(0.000000,512.000000) scale(0.100000,-0.100000)">
	<path d="M2553,4533c-30-6-73-59-73-90c0-14,109-300,241-637c133-336,244-619,246-628c5-17-74-18-1451-20l-1456-3l-27-28l-28-27
		v-540v-540l28-27l27-28l1456-3c1377-2,1456-3,1452-20c-3-9-112-287-243-617c-130-330-239-616-242-635c-10-70,65-124,132-95
		c43,18,2478,1892,2492,1918c7,12,12,33,12,47s-5,35-12,47c-15,27-2450,1900-2494,1919c-18,8-34,13-35,13
		C2576,4538,2565,4535,2553,4533z"/>
</g>
</svg>
