<svg version="1.1" id="Layer_1" xmlns="http://www.w3.org/2000/svg" x="0" y="0" viewBox="0 0 512 512" xml:space="preserve"><style>.st0{fill:#e1af79}</style><path class="st0" d="M223.4 110.8l3 3m13.1 13.1l.8.8c4.2 4.2 9.8 6.6 15.8 6.6 3.6 0 7-.8 10-2.3m11.9-10.3l1.7-1.7"/><path class="st0" d="M440.2 106.3l13.4-18 15.8-15.8c-28.3-28.3-65.6-42.6-102.7-42.6s-74.4 14.2-102.8 42.5l-7.9 7.9-7.9-7.9c-28.3-28.3-65.7-42.6-102.8-42.6S70.9 44 42.5 72.4C14.2 100.8 0 138.1 0 175.2S14.2 249.6 42.6 278l23.7 23.7 173.9 173.9c8.7 8.7 22.9 8.7 31.6 0l173.9-173.9 23.7-23.7c28.4-28.3 42.6-65.7 42.6-102.8s-14.2-74.4-42.5-102.7l-2.4-2.1-13.5 17.9 15.8-15.8-15.8 15.8-13.4 17.9 13.4-17.9-4.1 4.1"/></svg>