<svg version="1.1" id="Слой_1" xmlns="http://www.w3.org/2000/svg" x="0" y="0" viewBox="0 0 1250 1250" xml:space="preserve"><style>.st0{fill:#e7c095}</style><path class="st0" d="M6015 10560c-636-30-1267-190-1809-462-329-165-644-378-929-628-119-104-400-388-418-422-7-13 1-23 44-48 28-18 114-75 190-128 132-91 137-96 121-113-10-11-15-19-11-19 3 0 63 57 134 128 603 597 1379 1007 2189 1157 284 52 367 59 729 60 354 0 468-9 720-55 679-125 1301-408 1835-836 74-60 213-185 308-278l172-169 186 124c103 68 191 127 197 131 16 10-29 63-187 221-813 815-1863 1280-3021 1337-215 10-211 10-450 0zm3346-2139c-283-180-516-332-518-337s8-16 21-24c60-37 197-164 281-263 353-409 572-947 661-1622 38-292 6-562-70-581-38-9-61 2-126 63l-60 55-70-28c-39-15-73-31-76-35-8-14 158-148 230-185 51-27 84-38 130-41l61-4 550 289 550 290 7 38c4 22 11 136 14 254 23 761-171 1448-555 1965-85 115-333 367-435 443-38 29-72 52-75 51-3 0-237-148-520-328zm-6867 201c-38-33-110-102-159-153-409-423-655-1028-731-1794-17-169-21-647-7-759l8-60 535-283c518-274 537-283 591-283 81 0 190 56 292 151 43 39 75 75 70 80-4 4-37 19-73 33l-64 26-41-38c-121-115-175-109-210 23-76 287 47 992 261 1495 157 367 405 722 653 933 30 26 53 48 50 50-16 14-1076 631-1090 634-10 3-43-18-85-55z" transform="matrix(.1 0 0 -.1 0 1250)"/><path class="st0" d="M6370 8035c-107-13-465-62-795-109-469-67-609-91-642-107-66-33-150-115-335-328-94-108-233-257-310-332-84-82-138-143-138-155 1-71 110-195 226-256 94-50 170-68 280-68 229 0 403 92 674 358 69 67 132 125 141 127 22 7 777-73 798-85 39-20 866-563 1296-850 448-299 1267-881 1348-958 64-62 92-118 92-187 0-112-69-188-182-202-44-5-57-1-147 46-54 28-157 84-230 125-422 237-1094 599-1121 603-17 3-47-2-68-10-50-22-77-68-77-136 0-49 3-57 38-90 23-22 242-148 586-336 315-172 564-314 583-333 80-79 100-184 52-277-41-79-127-124-209-110-21 4-283 140-606 316-321 175-584 312-604 315-74 11-143-57-143-141 0-86 5-90 398-304 391-213 445-251 495-356 61-125 2-272-123-306-86-23-142-8-324 86-531 275-594 305-637 305-118 0-179-143-98-230 15-16 120-76 234-135 139-71 216-117 234-138 92-108 83-257-18-306-77-37-98-31-379 95-142 64-262 113-267 110-11-7-107-235-101-240 11-11 481-230 528-247 148-52 359 1 461 117 60 69 110 195 110 280v41l58-13c119-28 256-14 360 37 133 65 232 213 254 379l11 86 66-18c219-57 442 44 541 245 32 66 64 195 58 237-4 24-2 25 47 22 115-8 256 41 339 118 157 145 199 405 96 598-46 87-121 174-195 227-37 26-63 51-58 55 4 4 26 13 48 20s152 67 289 134l249 121-6 155c-10 247-50 459-133 703-120 350-325 694-552 929l-55 57-41-25c-145-89-330-163-462-185-86-14-157-2-383 66-236 71-854 295-1211 439-63 25-121 45-130 45-8-1-103-11-210-24z" transform="matrix(.1 0 0 -.1 0 1250)"/><path class="st0" d="M3725 7772c-43-27-172-167-256-278-341-454-533-989-556-1549-6-170-1-197 43-236 11-9 125-67 254-129 267-130 286-143 579-408 101-92 189-167 194-167s24 50 42 110c18 61 37 121 42 135 10 23 1 34-146 172-256 242-281 260-525 378l-216 105 6 85c30 435 173 852 415 1212 91 135 219 290 235 284 20-8 333-84 371-90 28-5 37 0 80 48 76 83 155 196 141 201-7 2-47 9-88 15-110 16-289 57-417 96-129 39-156 41-198 16z" transform="matrix(.1 0 0 -.1 0 1250)"/><path class="st0" d="M10550 5475c-129-57-238-106-242-107-4-2-17-52-28-113-69-361-204-766-360-1075-122-242-299-518-478-742-133-167-448-483-612-614-572-456-1205-743-1895-858-265-44-354-51-685-51-336 1-451 10-730 61-1578 288-2856 1494-3235 3053-25 102-49 196-53 209-6 20-48 41-247 123-132 55-246 107-253 116-15 21-16 29 8-134 187-1272 895-2400 1960-3122 659-447 1406-708 2213-772 191-15 674-6 857 15 932 111 1791 489 2480 1093 755 661 1266 1528 1470 2493 48 223 90 531 74 529-5 0-115-47-244-104z" transform="matrix(.1 0 0 -.1 0 1250)"/><path class="st0" d="M4293 5266c-61-29-120-86-151-149-35-70-85-298-86-392-1-72 3-88 32-147 71-145 225-187 363-99 54 34 54 34 131 251 57 164 61 181 62 265 0 73-4 99-22 140-63 138-198 192-329 131zm707-192c-62-19-135-76-169-130-55-86-270-567-282-628-25-135 30-264 136-318 91-47 236-14 306 71 27 32 274 536 322 659 38 97 13 217-62 292-69 68-151 86-251 54zm617-239c-47-18-130-77-149-108-8-12-24-46-36-74-12-29-93-205-178-390-134-290-157-347-161-399-10-111 41-209 131-257 63-33 174-31 244 6 85 45 120 89 209 262 133 262 264 546 280 610 36 141-18 284-130 340-59 29-146 33-210 10zm451-649c-56-15-122-58-153-101-28-38-218-399-233-444-18-53-15-160 7-206 22-47 64-89 104-104 85-32 212 2 282 76 35 36 221 374 251 457 19 51 18 157-2 204-17 42-57 88-94 107-40 21-111 26-162 11z" transform="matrix(.1 0 0 -.1 0 1250)"/></svg>