<?xml version="1.0" encoding="utf-8"?>
<!-- Generator: Adobe Illustrator 19.2.1, SVG Export Plug-In . SVG Version: 6.00 Build 0)  -->
<svg version="1.1" id="Twitter" xmlns="http://www.w3.org/2000/svg" xmlns:xlink="http://www.w3.org/1999/xlink" x="0px" y="0px"
	 viewBox="0 0 144.1 144" style="enable-background:new 0 0 144.1 144;" xml:space="preserve">
<style type="text/css">
	.st0{fill:#777781;}
</style>
<path class="st0" d="M111.1,47.2c1.8-0.9,6-3.7,8.1-9.6c0,0-4.9,3.6-11.6,4l-0.1,0.1c-3.3-3.7-8.4-6-13.8-6
	c-10.3,0-18.7,8.4-18.7,18.7c0,1.5,0.3,3.1,0.5,4.5l0-0.3c0,0-19.9,1.2-38.9-19.4c0,0-8.4,14.2,5.9,25c-3.1,0.5-8.6-2.3-8.6-2.3
	s0.4,14.9,15.2,18.7c-2.4,0.6-6.8,0.8-8.4,0.3c0,0,2.2,11.3,17.2,13.4c-3.9,2.2-11.1,8.9-27.3,7.6c0,0,11.7,9.5,33.3,8.2
	c21.6-1.3,37.3-16,43.7-31.3c6.4-15.3,4.6-24.2,4.6-24.2s5.3-2.8,9-9.4c-1.7,0.5-8,2.1-10.3,2.6C111.1,47.3,111.1,47.2,111.1,47.2z"
	/>
</svg>
