<svg xmlns="http://www.w3.org/2000/svg" viewBox="0 0 144.1 144"><path d="M111.1 47.2c1.8-.9 6-3.7 8.1-9.6 0 0-4.9 3.6-11.6 4l-.1.1c-3.3-3.7-8.4-6-13.8-6-10.3 0-18.7 8.4-18.7 18.7 0 1.5.3 3.1.5 4.5v-.3s-19.9 1.2-38.9-19.4c0 0-8.4 14.2 5.9 25-3.1.5-8.6-2.3-8.6-2.3s.4 14.9 15.2 18.7c-2.4.6-6.8.8-8.4.3 0 0 2.2 11.3 17.2 13.4-3.9 2.2-11.1 8.9-27.3 7.6 0 0 11.7 9.5 33.3 8.2 21.6-1.3 37.3-16 43.7-31.3 6.4-15.3 4.6-24.2 4.6-24.2s5.3-2.8 9-9.4c-1.7.5-8 2.1-10.3 2.6.2-.5.2-.6.2-.6z" fill="#777781"/></svg>