<?xml version="1.0" encoding="utf-8"?>
<!-- Generator: Adobe Illustrator 19.2.1, SVG Export Plug-In . SVG Version: 6.00 Build 0)  -->
<svg version="1.1" id="Слой_1" xmlns="http://www.w3.org/2000/svg" xmlns:xlink="http://www.w3.org/1999/xlink" x="0px" y="0px"
	 viewBox="0 0 300 301" style="enable-background:new 0 0 300 301;" xml:space="preserve">
<g transform="translate(0.000000,301.000000) scale(0.100000,-0.100000)">
	<path d="M2446,2987c-22-12-49-38-60-57c-21-35-21-45-24-1253l-3-1218l26-44c32-55,68-75,137-75c68,0,113,27,138,83
		c18,39,20,69,20,417v376l54,26c79,39,167,126,209,205c124,237,35,523-199,645l-63,33l-3,392c-3,444,0,425-88,471
		C2534,3016,2496,3016,2446,2987z"/>
	<path d="M2167,2697c-176-185-318-278-540-352c-188-63-452-94-802-95c-215-1-376-15-428-38s-107-75-130-125c-14-29-25-37-55-42
		c-98-17-156-55-193-126c-17-34-19-60-19-245c0-190,2-211,21-250c35-74,83-106,189-128c19-4,32-21,55-68c42-87,81-116,188-136l86-16
		l10-46c27-128,61-363,102-699c23-198,32-233,67-272c25-28,36-32,117-41c50-5,141-8,203-6c112,3,114,3,139,33c25,28,25,33,19,120
		c-3,49-18,144-31,210c-14,66-28,131-31,145c-4,23,2,28,63,57c173,80,232,221,155,375c-17,34-29,65-26,67c9,9,227-39,318-71
		c204-69,339-149,504-297l102-92v1111c0,610-1,1110-2,1110C2246,2780,2210,2743,2167,2697z"/>
</g>
</svg>
