<svg xmlns="http://www.w3.org/2000/svg" viewBox="0 0 512 512"><path d="M67.5 123.2c-18.2 3.4-34 19.7-37.4 38.2-1.5 8.3-1.5 200.9 0 209.2 3.5 19 19.3 34.8 38.3 38.3 4.2.8 60.7 1.1 185 1.1 195.3 0 186.8.2 197.9-5.7 6.7-3.6 16.4-13.3 20-20 5.7-10.7 5.7-9.9 5.7-117.9 0-66.9-.4-101-1.1-105-3.5-19-19.3-34.8-38.3-38.3-7.7-1.4-362.7-1.3-370.1.1zm128.4 31.1c-1.5 1.2-5.2 4.2-8.4 6.7-20.9 16.3-38.4 48-44.1 79.5-2.4 13.4-2.4 37.6-.1 50.2 3.5 18.9 11.1 38.2 21.2 53.4 5.8 8.6 17.9 21.6 25.9 27.6 3.4 2.6 6.5 5 7.1 5.5.5.4-15.6.8-35.7.8h-36.6l-.7-6.3C121.2 342 98.8 319 69 314.8l-8-1.1v-95.3l9.7-1.6c29.1-5 50.1-28 53.8-59.1l.7-5.7h36.7l36.6.1-2.6 2.2zm186.3 7.8c4.5 28.4 25.4 50 53.1 54.7l9.7 1.6v95.4l-6.2.7c-13.8 1.6-27.4 7.7-37.7 17-9.9 8.9-17.9 25.5-19.6 40.2l-.7 6.3h-36.6c-20.1 0-36.2-.4-35.7-.8.6-.5 3.7-2.9 7.1-5.5 23.4-17.7 41.1-48 47.1-81 2.2-12.3 2.3-37 0-49.2-6-32.8-22.3-62.7-43.7-80-3.4-2.8-7.4-6-8.9-7.2l-2.6-2.2 36.5-.1h36.6l1.6 10.1zm-115 9.6c1.5 1.4 1.8 3.2 1.8 12.3v10.8l9.3 2.1c11.4 2.7 22.1 7.7 22.5 10.7.4 2.5-5.3 22.1-6.9 24.1-1.9 2.2-4.7 1.5-12-2.8-9.5-5.5-16.9-7.9-24.3-7.8-15.7.2-23.6 10.1-15.5 19.4 4.1 4.6 8.8 7.3 22.9 13 6.3 2.6 14 6.1 17 7.8 7.5 4.2 15.7 12.1 18.9 18.2 2.3 4.5 2.6 6.1 2.6 15.5 0 9.3-.3 11.2-2.7 16.2-4.7 10.2-13.9 18.2-26 22.9l-5.8 2.2v11c0 15 .4 14.7-16.1 14.7-16 0-15.9.1-15.9-14.6v-10.1l-6.3-.6c-11.4-1.1-25.7-7.7-25.7-11.8 0-1.1 1.4-7 3.2-13.1 4-14 4.7-14.4 14.6-9.4 9.4 4.7 16.9 6.6 26.2 6.6 9.8-.1 15.5-2.5 17.6-7.6 1.8-4.4 1.1-8.7-2.2-13.1-3.2-4.2-8.9-7.5-23.2-13.3-26.1-10.6-37.3-21.1-38.9-36.3-1.1-10.6 4.8-23.5 14.4-31.3 4.5-3.7 16.8-10.4 19.1-10.4.9 0 1.2-3 1.2-11.7 0-15.7-.4-15.3 15.8-15.3 10.3 0 12.9.3 14.4 1.7z"/></svg>