<svg xmlns="http://www.w3.org/2000/svg" viewBox="0 0 32 32"><path d="M15.2 0C12.6 0 7.1.5 4 3.3 1.7 5.6.9 8.9.8 13.1.7 17.2.7 25 8.2 27.1v3.2s0 1.3.8 1.6c1.1.3 1.7-.7 2.7-1.7l1.9-2.1c5.1.4 9.1-.6 9.5-.7 1-.3 6.9-1.1 7.9-8.9 1-8-.5-13.1-3.1-15.4-.8-.7-4-3.1-11.2-3.1h-1.5zm.1 2.3h1.2c6.1 0 8.9 1.8 9.6 2.5 2.2 1.9 3.4 6.5 2.5 13.2-.8 6.5-5.6 6.9-6.4 7.2-.4.1-3.8 1-8.2.7 0 0-3.3 3.9-4.3 4.9-.1.1-.3.2-.5.2s-.2-.3-.2-.5v-5.4c-6.4-1.8-6-8.4-5.9-11.9.1-3.5.8-6.3 2.7-8.2 2.6-2.4 7.3-2.7 9.5-2.7zm.5 3.4c-.2 0-.4.2-.4.4s.2.4.4.4c2 0 3.9.7 5.4 2.1 1.5 1.4 2.2 3.3 2.2 5.8 0 .2.2.4.4.4s.4-.2.4-.4c.1-2.4-.8-4.7-2.4-6.3-1.7-1.6-3.7-2.4-6-2.4zm-5.3 1c-.3 0-.6 0-.8.2-.5.3-1 .7-1.5 1.3-.4.3-.6.7-.7 1.1 0 .2 0 .5.1.7.4 1.2.9 2.4 1.6 3.5.8 1.5 1.9 3 3.1 4.2v.1h.1c1.3 1.2 2.7 2.3 4.2 3.1 1.8 1 2.8 1.4 3.5 1.6.2.1.4.1.5.1.5 0 1.1-.3 1.5-.6.5-.5.9-1 1.2-1.5.3-.6.2-1.1-.2-1.5-.9-.8-1.8-1.5-2.9-2.1-.7-.4-1.4-.1-1.7.2l-.4.9c-.3.4-.9.3-.9.3-4.2-1.1-5.3-5.3-5.3-5.3s-.1-.6.3-.9l.8-.6c.4-.3.6-1 .2-1.7-.6-1-1.3-2-2.1-2.9-.1-.1-.3-.2-.6-.2zm6 1.1c-.5 0-.5.8 0 .8 1.3 0 2.6.6 3.5 1.5.8.9 1.3 2.2 1.2 3.4 0 .2.2.4.4.4s.4-.2.4-.4c0-1.6-.5-2.9-1.4-4-1-.9-2.4-1.5-4.1-1.7zm.6 2.2c-.5 0-.6.8 0 .8 1.3.1 2 .7 2 2.1 0 .2.2.4.4.4s.4-.2.4-.4c-.1-1.8-1-2.8-2.8-2.9z" fill="#999"/></svg>