<svg xmlns="http://www.w3.org/2000/svg" viewBox="0 0 1024 1024"><path d="M821.5 129.6c-8.3 1.8-20.1 6.4-76 29.9-208.6 87.7-239.5 100.7-459 193.2-59.4 25.1-123.5 52-142.5 60-38.4 16.1-48.3 21-57.5 28.3-13.8 11-22.4 27.7-22.5 43.6 0 7 3.3 19.3 7.1 26.5 6.3 11.7 19.4 23.7 34.4 31.3 3.9 1.9 36.5 13.4 72.5 25.5 72 24.1 92.2 30.9 92.7 31.5.2.2 9.2 29.1 19.9 64.2 42.6 139.5 43.5 142.2 52.4 155.7 10.2 15.6 23 22.7 41.2 22.7 13.3 0 25.2-5.1 37.3-16.1 4.4-4 12.3-11.1 17.5-15.9 50.1-45.8 68.1-62 68.9-62 .5 0 11 7.7 23.3 17.2 12.2 9.4 29.7 22.8 38.8 29.8 9.1 6.9 29.1 22.3 44.5 34.1 49.5 38 48.5 37.3 56.3 40.2 8.6 3.2 22 5.7 30.2 5.7 8.3 0 22.3-2.7 29.9-5.7 16.8-6.6 32.8-22.1 40.2-38.9 1.2-2.6 7.1-30.1 13.4-62.7 6.3-32 26.1-133.4 44-225.2 17.9-91.9 40.3-206.2 49.7-254 15.7-80.1 17-87.9 17.1-98.5.2-13.2-1.1-19.5-5.9-29.5-11.9-25-38.5-37.1-67.9-30.9zm9.5 65.5c0 2-118.1 606.4-119.1 609.7-1.5 4.5-6.3 7.5-10.9 6.6-5.3-.9-8.4-2.8-24-14.9-14.1-10.9-150-115.1-167.1-128.1l-5.7-4.3-56.8 51.8c-31.3 28.5-57 51.8-57.1 51.7-.8-.7 24-153.3 25-154.2 2.5-2.2 90.6-84.2 126.7-117.9 20.7-19.2 63.6-59.3 95.5-89 101-94 95.1-88 94-95-.4-2.2-1.4-4.6-2.3-5.3-2.1-1.6-7-1.5-12.1.3-2.3.8-31.9 18.6-65.9 39.7-33.9 21-120.9 74.8-193.2 119.6s-132.4 81.9-133.5 82.4c-1.5.7-19.2-4.9-74.5-23.6-39.9-13.4-81.5-27.4-92.5-31.1-11-3.8-20.3-7.1-20.7-7.4-.4-.4 31.5-14.2 71-30.8 39.4-16.7 86.8-36.6 105.2-44.4C661.3 264.1 828 194.1 829.8 194c.6 0 1.2.5 1.2 1.1z" fill="#999"/></svg>