<?xml version="1.0" encoding="utf-8"?>
<!-- Generator: Adobe Illustrator 19.2.1, SVG Export Plug-In . SVG Version: 6.00 Build 0)  -->
<svg version="1.1" id="Слой_1" xmlns="http://www.w3.org/2000/svg" xmlns:xlink="http://www.w3.org/1999/xlink" x="0px" y="0px"
	 viewBox="0 0 32 32" style="enable-background:new 0 0 32 32;" xml:space="preserve">
<style type="text/css">
	.st0{fill:#999999;}
</style>
<path class="st0" d="M15.2,0C12.6,0,7.1,0.5,4,3.3c-2.3,2.3-3.1,5.6-3.2,9.8C0.7,17.2,0.7,25,8.2,27.1v3.2c0,0,0,1.3,0.8,1.6
	c1.1,0.3,1.7-0.7,2.7-1.7l1.9-2.1c5.1,0.4,9.1-0.6,9.5-0.7c1-0.3,6.9-1.1,7.9-8.9c1-8-0.5-13.1-3.1-15.4h0c-0.8-0.7-4-3.1-11.2-3.1
	C16.6,0,16.1,0,15.2,0L15.2,0z M15.3,2.3c0.7,0,1.2,0,1.2,0c6.1,0,8.9,1.8,9.6,2.5c2.2,1.9,3.4,6.5,2.5,13.2
	c-0.8,6.5-5.6,6.9-6.4,7.2c-0.4,0.1-3.8,1-8.2,0.7c0,0-3.3,3.9-4.3,4.9C9.6,30.9,9.4,31,9.2,31c-0.2,0-0.2-0.3-0.2-0.5l0-5.4
	c-6.4-1.8-6-8.4-5.9-11.9C3.2,9.7,3.9,6.9,5.8,5C8.4,2.6,13.1,2.3,15.3,2.3L15.3,2.3z M15.8,5.7c-0.2,0-0.4,0.2-0.4,0.4
	c0,0.2,0.2,0.4,0.4,0.4c2,0,3.9,0.7,5.4,2.1c1.5,1.4,2.2,3.3,2.2,5.8c0,0.2,0.2,0.4,0.4,0.4v0c0.2,0,0.4-0.2,0.4-0.4
	c0.1-2.4-0.8-4.7-2.4-6.3C20.1,6.5,18.1,5.7,15.8,5.7L15.8,5.7z M10.5,6.7c-0.3,0-0.6,0-0.8,0.2h0c-0.5,0.3-1,0.7-1.5,1.3
	C7.8,8.5,7.6,8.9,7.5,9.3c0,0.2,0,0.5,0.1,0.7l0,0c0.4,1.2,0.9,2.4,1.6,3.5c0.8,1.5,1.9,3,3.1,4.2l0,0.1l0.1,0l0,0l0,0
	c1.3,1.2,2.7,2.3,4.2,3.1c1.8,1,2.8,1.4,3.5,1.6v0c0.2,0.1,0.4,0.1,0.5,0.1c0.5,0,1.1-0.3,1.5-0.6c0.5-0.5,0.9-1,1.2-1.5v0
	c0.3-0.6,0.2-1.1-0.2-1.5c-0.9-0.8-1.8-1.5-2.9-2.1c-0.7-0.4-1.4-0.1-1.7,0.2L18.1,18c-0.3,0.4-0.9,0.3-0.9,0.3l0,0
	c-4.2-1.1-5.3-5.3-5.3-5.3s-0.1-0.6,0.3-0.9l0.8-0.6c0.4-0.3,0.6-1,0.2-1.7c-0.6-1-1.3-2-2.1-2.9C11,6.8,10.8,6.7,10.5,6.7L10.5,6.7
	z M16.5,7.8c-0.5,0-0.5,0.8,0,0.8c1.3,0,2.6,0.6,3.5,1.5c0.8,0.9,1.3,2.2,1.2,3.4c0,0.2,0.2,0.4,0.4,0.4l0,0c0.2,0,0.4-0.2,0.4-0.4
	c0-1.6-0.5-2.9-1.4-4C19.6,8.6,18.2,8,16.5,7.8C16.5,7.8,16.5,7.8,16.5,7.8z M17.1,10c-0.5,0-0.6,0.8,0,0.8c1.3,0.1,2,0.7,2,2.1
	c0,0.2,0.2,0.4,0.4,0.4h0c0.2,0,0.4-0.2,0.4-0.4C19.8,11.1,18.9,10.1,17.1,10C17.1,10,17.1,10,17.1,10L17.1,10z"/>
</svg>
