<svg xmlns="http://www.w3.org/2000/svg" viewBox="0 0 612 612"><path d="M50.8 518.1c.1-2.6.3-6.5.6-9.1.2-1.9.4-3 .5-4.6 6.6-67.9 35.3-124.6 86.1-170 8-7.2 19.3-6.6 26.1 1.1 6.9 7.7 6.1 19-2 26.2-25.3 22.4-44.6 49-57.7 80.1-8.6 20.3-13.8 41.5-16 63.4-.3 2.6.5 2.9 2.8 2.9 107.5-.1 215 0 322.5 0 35.7 0 71.5 0 107.2.1 2.6 0 3.1-.7 2.8-3.2-3-30.3-11.8-58.8-26.8-85.3-25.8-45.5-63.1-77.8-111.7-97.1-1.5-.6-2.7-.4-4.1.4-26.4 15.9-55 22.8-85.7 20.8-64.4-4.3-119.3-52.5-132.2-115.8-14.7-72.3 25.8-143.4 95.5-167.5 12.4-4.3 25.2-6.8 38.3-7.6.3 0 .6.1.9 0 1.2-.1 3.1-.2 4.3-.3 2.2.2 4.5.2 6.7 0 1.2.1 3.1.2 4.2.2.3.1.7 0 1.1 0 11.6.7 23 2.6 34.2 6.1 67.5 21 109.8 85.2 102.3 155.7-3.1 29.1-14.6 54.8-33.3 77.3-3 3.6-3.1 3.6 1.2 5.7 80.5 39.6 134 118 141.6 207.4.1 1.6.4 3.9.5 5.4.2 2.6.4 4.5.4 7.1v3.1c0 7.8-3.6 15.3-10 19.8-3.3 2.3-7.3 4.2-11.5 4.2H72.1c-1.5 0-3 0-4.4-.2-7.6-.8-12.7-4.9-15.6-12-.2-.3-.5-1.4-.6-2-.3-1.4-.5-3.4-.6-4.8-.3-2.3-.2-4.2-.1-7.5zM306 307.6c60.3-.1 109.3-49.1 109.3-109.3C415.3 138 366.2 89 306 89.1c-60.3.1-109.3 49.1-109.3 109.3S245.8 307.7 306 307.6z"/><path d="M311.7 52.3c-3.8.5-7.6.5-11.5 0h11.5z"/></svg>