<svg xmlns="http://www.w3.org/2000/svg" viewBox="0 0 512 512"><path d="M114 128.7c-7.9.9-20 3.7-28 6.5-42.7 15.1-73.9 50.9-83.6 95.8-2.6 11.9-2.6 38.1 0 50 7.3 33.8 26.8 62.6 55.1 81.7 12.2 8.2 27.5 14.7 43.5 18.5 6.9 1.6 13.3 2.1 33.8 2.5l25.3.5-16-32.1L128 320h-3.3c-6.5-.1-17.4-3.1-25.7-7.1-20.9-10.4-35-33.2-35-56.9 0-29.6 21.7-56.5 50.5-62.5 10.3-2.1 112.7-2.1 123 0 18.2 3.8 35.2 17 43.4 33.5 4 8.3 7 19.2 7.1 25.7v3.3h64.3l-.7-9.1c-1.7-22-9.1-43.8-20.9-61.4-5.6-8.3-7.7-10.8-17-20.3-16.5-16.8-37.4-28.3-62.7-34.5-8.1-1.9-11.4-2-71-2.2-34.4-.1-64.1-.1-66 .2z"/><path d="M367.9 159.9L384 192h3.3c6.5.1 17.4 3.1 25.7 7.1 20.9 10.4 35 33.2 35 56.9 0 29.6-21.7 56.5-50.5 62.5-10.3 2.1-112.7 2.1-123 0-18.2-3.8-35.2-17-43.4-33.5-4-8.3-7-19.2-7.1-25.8V256h-64.3l.7 9.1c3 39.6 23.8 75.3 57.1 97.6 12.6 8.4 29.2 15.3 45.5 18.9 7.8 1.7 13.7 1.9 73 1.9s65.2-.2 73-1.9c51.5-11.3 89.6-49.4 100.6-100.6 2.6-11.9 2.6-38.1 0-50-3.5-16.2-10.4-32.9-18.9-45.5-5.6-8.3-7.7-10.8-17-20.3-16.6-16.8-37.9-28.5-62.7-34.4-6.9-1.6-13.3-2.1-33.8-2.5l-25.3-.5 16 32.1z"/></svg>