<?xml version="1.0" encoding="utf-8"?>
<!-- Generator: Adobe Illustrator 19.2.1, SVG Export Plug-In . SVG Version: 6.00 Build 0)  -->
<svg version="1.1" id="Слой_1" xmlns="http://www.w3.org/2000/svg" xmlns:xlink="http://www.w3.org/1999/xlink" x="0px" y="0px"
	 viewBox="0 0 512 512" style="enable-background:new 0 0 512 512;" xml:space="preserve">
<g transform="translate(0.000000,512.000000) scale(0.100000,-0.100000)">
	<path d="M4900,653.9c-65,70-59.2,69.3-351,361.1l-518,520l70,105c88,130,216,389,263,533c82,250,110,434,110,712
		c0,178-4,244-22,345c-81,475-278,868-602,1204c-480,497-1142,740-1840,674c-386-36-794-196-1113-436C82,4058-217,2979,167,2035
		C479,1265,1207,726,2035,650c303-28,616,9,912,106c142,47,402,175,533,263l105,70l530-528c225.4-225.4,262.2-261.3,341.7-337.1
		 M2544,4450c576-113,1042-527,1219-1085c56-176,72-284,72-485c0-128-5-202-19-275c-109-593-520-1062-1091-1248
		c-167-55-274-70-480-71c-114,0-216,5-255,13c-268,52-471,134-660,267c-352,246-584,607-666,1034c-28,145-26,428,4,578
		c45,226,141,451,270,632c86,121,251,286,372,372c113,80,299,175,427,217c86,28,257,65,348,75C2182,4484,2438,4471,2544,4450z"/>
</g>
</svg>
