<?xml version="1.0" encoding="utf-8"?>
<!-- Generator: Adobe Illustrator 19.2.1, SVG Export Plug-In . SVG Version: 6.00 Build 0)  -->
<svg version="1.1" id="Слой_1" xmlns="http://www.w3.org/2000/svg" xmlns:xlink="http://www.w3.org/1999/xlink" x="0px" y="0px"
	 viewBox="0 0 512 512" style="enable-background:new 0 0 512 512;" xml:space="preserve">
<g transform="translate(0.000000,512.000000) scale(0.100000,-0.100000)">
	<path d="M1940,4821v-278l-92-32c-50-18-138-55-196-83l-104-51l-194,194l-194,194l-417-418l-418-417l198-198l198-198l-44-94
		c-25-52-61-143-82-202l-38-108H294H30v-595v-595h273h272l29-86c16-47,54-135,83-197l54-111l-193-193l-193-193l418-417l417-418
		l198,198l198,198l94-45c52-24,132-57,177-73l83-28V303V30h595h595l2,266l3,267l80,27c107,36,171,63,256,106l72,36l204-204l203-203
		l417,418l418,417l-203,203l-203,203l49,102c27,56,62,141,78,187l29,85h272h273v595v595h-264h-264l-37,108c-20,59-58,152-84,207
		l-47,100l180,188c100,104,182,192,184,195c1,4-185,194-413,422l-415,415l-188-188l-188-188l-99,46c-55,26-148,63-207,83l-108,37
		v273v272h-595h-595V4821z M2798,3451c323-94,565-340,649-660c35-131,37-314,5-445c-82-331-327-580-667-678c-69-20-102-23-235-22
		c-138,1-164,3-243,27c-214,65-396,197-517,372c-51,74-108,204-132,301c-30,124-30,304,0,428c86,349,356,611,712,691
		C2467,3487,2702,3479,2798,3451z"/>
	<path d="M2418,3001c-167-54-290-198-318-373c-42-272,178-528,455-528c278,0,501,260,455,531c-22,130-112,264-218,326
		C2686,3020,2533,3037,2418,3001z"/>
</g>
</svg>
