<?xml version="1.0" encoding="utf-8"?>
<!-- Generator: Adobe Illustrator 19.2.1, SVG Export Plug-In . SVG Version: 6.00 Build 0)  -->
<svg version="1.1" id="Слой_1" xmlns="http://www.w3.org/2000/svg" xmlns:xlink="http://www.w3.org/1999/xlink" x="0px" y="0px"
	 viewBox="0 0 752 980" style="enable-background:new 0 0 752 980;" xml:space="preserve">
<style type="text/css">
	.st0{fill:#E7C095;}
</style>
<g transform="translate(0.000000,980.000000) scale(0.100000,-0.100000)">
	<path class="st0" d="M3678,9773c-18-15-81-71-139-124c-564-514-1292-862-2159-1033c-297-59-534-86-977-111c-171-9-274-20-296-29
		c-18-7-48-31-65-52l-32-39l1-1430c0-1741,8-2152,43-2420c151-1139,588-2145,1284-2952c240-278,523-545,797-751
		c466-349,927-597,1430-768l195-66l179,60c876,296,1682,853,2286,1577c690,829,1118,1844,1250,2965c25,212,34,795,34,2355l1,1430
		l-32,39c-54,65-47,64-463,87c-1169,62-2226,437-2908,1031c-65,57-148,129-185,162C3809,9803,3739,9823,3678,9773z M3847,9329
		c271-248,718-524,1142-704c600-255,1218-393,1971-440c122-7,223-15,225-17c8-9-16-3283-25-3423c-22-345-122-819-260-1236
		c-173-523-444-1040-768-1469c-140-184-228-286-407-469c-534-546-1169-954-1862-1194l-101-36l-126,44c-855,298-1631,864-2223,1622
		C796,2797,391,3906,350,4920c-5,118-9,899-10,1736v1521l173,6c158,6,524,42,692,67c737,114,1500,396,2035,753
		c151,101,356,255,439,331c39,37,75,66,81,66C3765,9400,3805,9368,3847,9329z"/>
	<path class="st0" d="M3670,8486c-36-18-117-65-180-103c-370-225-751-398-1190-541c-311-101-508-149-933-227c-137-25-263-52-280-59
		c-18-8-48-30-67-50l-35-37l3-867c4-1012,17-1781,32-1937c25-247,119-660,213-940c303-900,837-1637,1579-2178
		c230-167,666-407,885-487c60-22,63-22,115-5c132,43,556,264,748,391c477,313,908,749,1232,1249c266,410,473,886,592,1360
		c50,202,95,440,112,595c18,175,32,910,36,1982l3,837l-40,41c-49,50-73,57-340,105c-428,77-695,144-1047,264
		c-380,130-817,336-1103,519c-100,65-215,122-245,122C3746,8520,3706,8505,3670,8486z M3995,6500c162-51,261-119,382-259
		c134-156,185-297,187-521c1-116-2-145-22-205c-39-119-117-268-171-327l-50-54l110-440c134-532,273-1104,292-1199
		c17-84,11-111-38-171l-36-44h-889h-889l-36,44c-49,60-55,87-38,171c19,95,158,667,292,1199l110,440l-48,52c-57,63-118,177-163,305
		c-32,90-33,100-32,234c1,121,5,152,28,228c34,115,62,168,134,258c185,233,383,324,682,315C3894,6523,3942,6517,3995,6500z"/>
</g>
</svg>
