<svg version="1.1" id="Слой_1" xmlns="http://www.w3.org/2000/svg" x="0" y="0" viewBox="0 0 752 980" xml:space="preserve"><style>.st0{fill:#e7c095}</style><path class="st0" d="M3678 9773c-18-15-81-71-139-124-564-514-1292-862-2159-1033-297-59-534-86-977-111-171-9-274-20-296-29-18-7-48-31-65-52l-32-39 1-1430c0-1741 8-2152 43-2420 151-1139 588-2145 1284-2952 240-278 523-545 797-751 466-349 927-597 1430-768l195-66 179 60c876 296 1682 853 2286 1577 690 829 1118 1844 1250 2965 25 212 34 795 34 2355l1 1430-32 39c-54 65-47 64-463 87-1169 62-2226 437-2908 1031-65 57-148 129-185 162-113 99-183 119-244 69zm169-444c271-248 718-524 1142-704 600-255 1218-393 1971-440 122-7 223-15 225-17 8-9-16-3283-25-3423-22-345-122-819-260-1236-173-523-444-1040-768-1469-140-184-228-286-407-469-534-546-1169-954-1862-1194l-101-36-126 44c-855 298-1631 864-2223 1622C796 2797 391 3906 350 4920c-5 118-9 899-10 1736v1521l173 6c158 6 524 42 692 67 737 114 1500 396 2035 753 151 101 356 255 439 331 39 37 75 66 81 66 5 0 45-32 87-71z" transform="matrix(.1 0 0 -.1 0 980)"/><path class="st0" d="M3670 8486c-36-18-117-65-180-103-370-225-751-398-1190-541-311-101-508-149-933-227-137-25-263-52-280-59-18-8-48-30-67-50l-35-37 3-867c4-1012 17-1781 32-1937 25-247 119-660 213-940 303-900 837-1637 1579-2178 230-167 666-407 885-487 60-22 63-22 115-5 132 43 556 264 748 391 477 313 908 749 1232 1249 266 410 473 886 592 1360 50 202 95 440 112 595 18 175 32 910 36 1982l3 837-40 41c-49 50-73 57-340 105-428 77-695 144-1047 264-380 130-817 336-1103 519-100 65-215 122-245 122-14 0-54-15-90-34zm325-1986c162-51 261-119 382-259 134-156 185-297 187-521 1-116-2-145-22-205-39-119-117-268-171-327l-50-54 110-440c134-532 273-1104 292-1199 17-84 11-111-38-171l-36-44H2871l-36 44c-49 60-55 87-38 171 19 95 158 667 292 1199l110 440-48 52c-57 63-118 177-163 305-32 90-33 100-32 234 1 121 5 152 28 228 34 115 62 168 134 258 185 233 383 324 682 315 94-3 142-9 195-26z" transform="matrix(.1 0 0 -.1 0 980)"/></svg>