<svg version="1.1" id="Слой_1" xmlns="http://www.w3.org/2000/svg" x="0" y="0" viewBox="0 0 1024 1024" xml:space="preserve"><style>.st0{fill:#19a081}</style><path class="st0" d="M719 200c-10.7 2.7-16.2 8-36 34.1-50.2 66.2-112.5 187.3-147.8 287-8.2 23.4-9.3 24.9-11.1 17.7-5.8-24.1-52.2-114.3-66.2-128.9-1.2-1.2-5.1-6.6-8.6-12.3-8.6-13.4-16.9-17.5-35.4-17.5-7.8 0-18.1 1-23 2.1s-9.7 2.3-10.9 2.5-7.8 3.1-14.6 6.4c-21.4 10.7-33.3 26.1-30 39.1.6 2.7 17.9 35.8 38.4 73.4 20.4 37.4 40.1 73.8 44 80.8 3.7 7 11.3 21 16.9 31.2 47.9 87 46.1 84.1 53.5 87.2 12.5 5.3 54.5.4 80.2-9.3 21.2-8 21.6-8.4 39.7-53.5 9.2-22.6 18.5-46.1 21-52.6 18.9-48.4 67.5-151.4 93-196.6 6.6-11.9 27.6-47.7 46.9-79.8 23-38.6 34.7-60.2 34.7-63.7 0-16.7-32.3-42.4-59.4-47.1-4.3-.8-9.5-1.8-11.7-2.1-2.1-.4-8.1.4-13.6 1.9z"/><path class="st0" d="M800.9 360.4c-10.3 17.3-19 35.3-27.5 53.6C786 445.2 793 479.2 793 514.9c.5 149.2-121 270.7-270.7 270.7-149.2 0-270.7-121.5-270.7-270.7s121.5-270.7 270.7-270.7c29.8 0 58.4 4.9 85.3 13.8 5.4-7.3 10.9-14.5 16.3-21.8 4.8-6.4 9.9-12.7 14.6-19.4-36.3-14.4-75.9-22.3-117.3-22.3-175.5 0-318.6 143.1-318.6 318.6 0 175.5 143.1 318.6 318.6 318.6s318.6-143.1 318.6-318.6c.1-55.3-14.1-107.3-38.9-152.7z"/></svg>