<svg version="1.1" id="Слой_1" xmlns="http://www.w3.org/2000/svg" x="0" y="0" viewBox="0 0 512 512" xml:space="preserve"><style>.st0{fill:#777781}</style><path class="st0" d="M2365 3959c-580-35-1168-256-1632-612-245-189-492-451-661-705l-55-82 59-88c191-282 466-563 744-762 331-237 738-414 1130-493 477-97 1016-75 1460 60 339 102 678 271 934 465 292 221 566 514 740 791l18 29-48 71c-140 213-426 525-624 681-156 123-351 245-545 341-374 185-732 279-1156 305-178 11-174 11-364-1zm496-374c590-69 1134-332 1553-751 92-92 236-258 236-273 0-16-187-227-277-312-401-380-882-615-1434-700-206-32-552-32-758 0-553 85-1033 320-1434 700-90 85-277 296-277 312 0 15 146 185 237 275 417 414 960 678 1541 749 149 18 460 18 613 0z" transform="matrix(.1 0 0 -.1 0 512)"/><path class="st0" d="M2434 3260c-141-26-266-92-374-200-87-87-140-172-177-285-23-71-26-96-26-215s3-144 26-215c37-113 90-198 177-285s172-140 285-177c71-23 96-26 215-26s144 3 215 26c113 37 198 90 285 177s140 172 177 285c23 71 26 96 26 215s-3 144-26 215c-37 113-90 198-177 285-135 134-281 198-470 205-58 2-128 0-156-5z" transform="matrix(.1 0 0 -.1 0 512)"/></svg>