<svg version="1.1" id="Слой_1" xmlns="http://www.w3.org/2000/svg" x="0" y="0" viewBox="0 0 872 1090" xml:space="preserve"><style>.st0{fill:#e7c095}</style><path class="st0" d="M4055 10885c-505-49-969-210-1367-474-164-109-289-214-434-362-202-209-343-408-474-674-82-166-86-177-151-363-104-303-159-605-181-995-19-343 12-567 131-947 69-222 226-633 311-817 17-35 30-66 30-68s15-36 34-77c18-40 45-98 59-128 211-460 601-1213 892-1725 34-60 74-130 87-155 74-136 403-697 573-980 81-135 155-258 164-273 19-32 467-751 556-892 33-52 67-94 75-94s33 28 54 62c738 1166 1289 2102 1751 2972 32 61 67 126 78 145 29 52 360 714 395 790 128 277 162 355 224 500 177 416 304 781 362 1040 44 198 50 261 49 500-4 775-213 1439-619 1965-88 115-272 305-394 407-187 157-486 336-715 428-223 90-422 145-680 190-216 38-565 48-810 25zm560-2009c173-47 319-131 446-257 286-282 372-696 225-1073-96-243-303-455-538-551-225-92-421-105-649-45-325 85-598 353-696 683-43 146-52 289-28 433 76 441 411 772 845 835 100 14 296 2 395-25z" transform="matrix(.1 0 0 -.1 0 1090)"/><path class="st0" d="M2690 3704c-52-7-133-18-180-24-497-67-982-185-1349-330C431 3062 34 2643 4 2126c-12-207 26-389 121-581 232-466 762-851 1570-1140 453-162 1107-300 1680-355 61-6 155-15 210-20 55-6 252-15 437-22 346-12 880-1 1113 22 55 5 150 14 210 20 830 80 1619 286 2210 579 756 374 1165 875 1165 1426 0 733-705 1273-2010 1539-224 46-368 69-658 106-237 31-217 35-325-69-51-49-89-92-85-96 3-3 39-11 80-16 498-63 879-148 1231-274 751-268 1089-652 940-1068-28-78-106-205-171-278-156-175-472-375-812-513-289-117-545-191-970-281-250-53-557-92-985-127-214-17-975-17-1195 0-386 31-751 77-955 122-22 5-76 16-120 25-621 126-1194 361-1524 626-423 340-486 727-170 1049 339 346 1037 596 2007 719 41 5 77 13 80 16 4 4-34 47-85 96l-92 89-58-1c-32-1-101-7-153-15z" transform="matrix(.1 0 0 -.1 0 1090)"/></svg>