<svg xmlns="http://www.w3.org/2000/svg" viewBox="0 0 888 980"><path d="M434.5 2.4c-5.4 2.5-10 7.1-12.2 12.3-1 2.6-1.3 13.9-1.3 55.3s.3 52.7 1.3 55.3c3.5 8.3 13 14.7 21.7 14.7s18.2-6.4 21.7-14.7c1-2.6 1.3-13.9 1.3-55.3s-.3-52.7-1.3-55.3C462.2 6.4 452.7 0 444 0c-2.6 0-6.6 1-9.5 2.4zm-295.4 122c-4.9 1.8-11.1 7.4-13.2 12-2.5 5.5-2.4 13.9.2 19.6 1.5 3.3 11 13.5 36.7 39.3 19.1 19.1 36.1 35.7 37.7 36.7 7.8 4.8 18.8 4.4 26.3-1 8.3-5.9 11.6-19.3 7.2-28.4-1.2-2.7-14.8-16.9-38.7-40.7-31.1-30.9-37.4-36.7-40.9-37.7-5.2-1.5-10.9-1.4-15.3.2zm595.9-.5c-6.1 2-10.4 5.9-44.2 39.8-24 24-36.2 37-37.3 39.5-3.8 9.4-.7 21.4 7.3 27.5 6.2 4.7 13.3 6 20.8 3.8 5.8-1.6 6.6-2.3 41.8-37.3 27.8-27.7 36.4-36.8 38.2-40.7 5.5-11.6 1.2-25-9.9-30.6-4.4-2.3-12.8-3.3-16.7-2zm-310.5 86.7c-54.3 5.7-98.1 23.8-138.3 57.1-27.5 22.9-52.1 55.6-66.3 88.4-12.9 29.8-19.4 58.4-20.6 90.9-2 55.6 13.9 102.6 51.2 151.5 3.8 4.9 15.3 19.2 25.7 31.7 29 35 39.2 48.8 49.6 67.4 10.1 18.1 17 36.7 21.2 57.5 2.9 14.1 2.9 14.4-2.5 15.9-5.5 1.5-11.9 6.9-14.7 12.4-6.6 12.8 1.8 29.5 16.5 32.5 3.6.8 34.2 1.1 100.7.9 89.5-.3 95.7-.4 99.5-2.1 8.8-4 13.8-11.6 13.9-21.2 0-10.2-7-19.7-16.7-22.4-5.4-1.5-5.3-1.2-3.2-13 7.1-40.3 23.3-70 66.2-121.7 36-43.3 48.6-61 60.3-84.8 28.9-58.6 29.3-130.5 1.1-195.5-14-32.4-36.9-63.1-64.6-86.9-35.3-30.2-77.6-49.5-124.5-56.7-10.1-1.6-45.9-2.8-54.5-1.9zm-41.4 56.7c5.4 3.6 7.9 8.2 7.9 14.4 0 9.7-2.7 12.7-18.5 20.3-43.4 21-74.7 56.7-89.6 102.3-4.6 14.2-6.4 17.1-12.3 19.8-5.2 2.4-9 2.3-14.2 0-9.6-4.4-12.2-13-8.1-26.6 13.2-43 38.3-79.2 73.2-105.5 11.8-8.9 20.4-14.1 35-21.2 10.3-4.9 12.8-5.8 17.6-5.8 4.2 0 6.5.6 9 2.3zm-368.6 155c-12.4 5.8-17 19.3-10.9 31.6 3.2 6.4 8.6 10.5 15.5 12 3.2.7 22.4 1.1 52.3 1.1 52.2 0 54.4-.2 61.2-6.2 5.2-4.6 7.7-10.2 7.8-17.3 0-6.8-1.9-11.5-6.6-16.4-6.8-6.9-3.8-6.6-61.8-6.9l-52.5-.2-5 2.3zm748-.7c-8.6 3.2-14.8 12.2-14.8 21.6 0 10.9 7.7 20.4 18.3 22.7 7.8 1.7 97.1 1.5 103.6-.2 6.8-1.8 11.8-5.8 14.9-12 6-12.1 1.3-25.6-11-31.3l-5-2.4-51 .1c-42.1 0-51.7.3-55 1.5zM205 652.3c-4.7 1.4-76.3 72.2-79.1 78.2-4.3 9.2-.9 22.6 7.3 28.5 7.5 5.4 18.5 5.8 26.3 1 1.6-1 18.6-17.6 37.7-36.7 37.5-37.6 38.7-39.2 38.8-49.2 0-15.8-15.2-26.6-31-21.8zm462.1.1c-4.9 1.8-11.1 7.4-13.2 12-2.5 5.5-2.4 13.9.2 19.6 1.5 3.3 11 13.5 36.7 39.3 19.1 19.1 36.1 35.7 37.7 36.7 7.8 4.8 18.8 4.4 26.3-1 8.3-5.9 11.6-19.3 7.2-28.4-1.2-2.7-14.8-16.9-38.7-40.7-31.1-30.9-37.4-36.7-40.9-37.7-5.2-1.5-10.9-1.4-15.3.2zm-322.4 177c-17.6 4.8-22.8 26.5-9.5 39.3 6.8 6.6 2 6.3 108.7 6.3 66.6 0 97.8-.3 100.6-1.1 5.9-1.6 13.8-10.1 15.4-16.4 2.7-10.8-2.3-21.5-12.9-27.1-3.3-1.8-8-1.9-100.5-2.1-76.9-.1-98 .1-101.8 1.1zm-4.6 60.2c-12.4 6.2-16.4 21.8-8.6 33.6 3.8 5.7 9.8 8.7 19.9 9.8 4.7.6 11.2 2 14.3 3.2 7.1 2.6 14.6 9.9 19.2 18.5 6.1 11.4 17.8 20.4 30.8 23.8 8.2 2.2 48.5 2.1 56.8 0 13-3.4 25.2-13.1 31-24.5 3.8-7.5 12.1-15.3 19-17.9 3-1.1 9.4-2.5 14.1-3.1 6.2-.7 9.9-1.7 13-3.5 15.3-9 14.1-32.6-1.9-40.1l-5.2-2.4H345.4l-5.3 2.6z" fill="#e7c095"/></svg>