<?xml version="1.0" encoding="utf-8"?>
<!-- Generator: Adobe Illustrator 19.2.1, SVG Export Plug-In . SVG Version: 6.00 Build 0)  -->
<svg version="1.1" id="Слой_1" xmlns="http://www.w3.org/2000/svg" xmlns:xlink="http://www.w3.org/1999/xlink" x="0px" y="0px"
	 viewBox="0 0 800 800" style="enable-background:new 0 0 800 800;" xml:space="preserve">
<style type="text/css">
	.st0{fill:#D0AB81;}
</style>
<g transform="translate(0.000000,800.000000) scale(0.100000,-0.100000)">
	<path d="M3622.8,7999.2c-769-87-1476-382-2092-871c-172-136-484-449-624-624c-461-579-732-1220-838-1985c-20-140-22-204-22-505
		c0-272,3-372,17-472c108-795,383-1448,864-2053c120-151,440-469,603-599c406-324,868-567,1360-715c238-72,518-126,785-151
		c167-15,611-13,783,5c418,44,787,139,1167,301c658,282,1253,759,1665,1334c122,170,202,302,296,485c252,488,394,979,444,1530
		c15,163,12,559-5,737c-114,1190-746,2244-1745,2913c-525,351-1050,553-1690,652c-147,23-201,26-505,29
		C3840.8,8012.2,3711.8,8009.2,3622.8,7999.2z M4447.8,7898.2c918-94,1750-500,2404-1170c601-618,960-1383,1071-2284
		c21-169,18-732-5-900c-90-662-292-1208-641-1725c-248-368-612-737-982-998c-821-577-1807-816-2796-677
		c-1037,145-1948,692-2596,1557c-295,392-535,902-656,1388c-282,1139-14,2391,712,3324c601,772,1486,1298,2447,1455
		c129,21,264,35,470,50C3967.8,7925.2,4304.8,7913.2,4447.8,7898.2z"/>
	<path d="M3979.8,7845.2l-29-29v-277c0-281,3-304,39-332c28-21,87-15,118,11l28,24l3,264c4,293-1,329-48,353
		C4046.8,7882.2,4012.8,7878.2,3979.8,7845.2z"/>
	<path d="M2113.8,7355.2c-31-20-48-55-45-94c2-31,252-466,281-488c35-28,87-20,120,17c40,47,27,84-113,330c-69,122-132,226-139,233
		C2190.8,7375.2,2146.8,7376.2,2113.8,7355.2z"/>
	<path d="M5885.8,7363.2c-27-13-27-13-167-274c-133-249-140-274-87-319c40-34,92-35,120-3c28,31,257,455,265,490c9,41-13,83-51,101
		C5928.8,7376.2,5914.8,7377.2,5885.8,7363.2z"/>
	<path d="M3845.8,6897.2c-16-19-46-47-67-61c-30-19-38-31-38-54c0-26,3-29,23-22c12,4,39,18,60,31l37,23v-175v-175h30h30v235v235
		l-22-1C3885.8,6933.2,3862.8,6918.2,3845.8,6897.2z"/>
	<path d="M4144.8,6920.2c-56-25-103-108-73-127c27-17,59-10,59,11c0,12,11,32,25,45c32,33,83,34,113,2c46-49,25-94-96-204
		c-84-77-122-129-122-167c0-14,20-16,155-16h155v30v30h-112h-113l99,92c54,51,105,107,112,125c28,65,11,133-41,167
		C4269.8,6932.2,4183.8,6938.2,4144.8,6920.2z"/>
	<path class="st0" d="M4105.8,4241c-0.2,29.9-5,891.2-5,891.2c-4,779-7,894-20,902c-20,13-37,12-61,0c-19-10-19-31-19-906
		c0-752.8-6.8-867.2-9.6-890"/>
	<path class="st0" d="M3983.2,4236.5c-17.9,12.8-251.2,408.7-663.4,1122.7c-355,616-656,1130-667,1143c-25,26-31,27-61,6
		c-17-12-22-24-19-43c2-14,298-534,657-1155c0,0,640.4-1107.3,652.8-1128.7"/>
	<path d="M753.8,5987.2c-51-9-83-102-50-146c14-19,461-270,497-280c30-8,85,15,99,41c15,28,14,84-1,105c-16,20-466,272-499,279
		C786.8,5989.2,765.8,5989.2,753.8,5987.2z"/>
	<path d="M7280.8,5987.2c-42-16-473-278-485-296c-23-33-18-81,12-117c44-53,74-43,335,114c125,75,234,147,243,159
		C7432.8,5914.2,7357.8,6015.2,7280.8,5987.2z"/>
	<path d="M6743.8,4258.2c-33-17-73-69-73-97c0-13,27-27,58-27c6,0,12,8,12,18c0,27,42,62,73,62c34,0,67-32,67-65c0-34-33-65-70-65
		c-19,0-30-5-30-14c0-8-3-21-6-30c-5-13,2-16,35-16c83,0,122-86,65-144c-38-37-84-36-118,5c-14,17-26,37-26,46c0,11-6,14-22,9
		c-13-3-29-6-36-6c-16,0-6-46,19-81c21-30,85-59,127-59c45,1,110,36,132,72c13,21,20,51,20,82c0,41-5,53-33,81l-33,33l23,26
		C7010.8,4185.2,6865.8,4318.2,6743.8,4258.2z"/>
	<path d="M1130.8,4232.2c-90-61-94-214-6-270c40-25,125-21,157,8l22,19l-7-45c-8-53-33-91-69-104c-34-12-74,6-87,39
		c-7,19-17,25-41,25c-30,0-31-1-25-32c3-18,20-45,36-60c26-24,39-28,88-28c120,0,166,66,167,240c0,86-4,112-20,144
		c-28,55-64,78-127,84C1174.8,4255.2,1159.8,4252.2,1130.8,4232.2z M1271.8,4168.2c54-58,17-164-58-164c-67,0-106,79-71,143
		C1170.8,4200.2,1231.8,4210.2,1271.8,4168.2z"/>
	<path d="M218.8,4090.2c-43-32-45-109-5-146c20-19,37-20,309-20h289l24,25c19,18,25,35,25,65s-6,47-25,65l-24,25h-288
		C303.8,4103.2,231.8,4100.2,218.8,4090.2z"/>
	<path d="M7241.8,4078.2c-32-41-31-96,2-131c20-23,22-23,318-23h298l20,26c30,38,28,98-4,129l-24,25h-295h-295L7241.8,4078.2z"/>
	<path d="M1170.8,2471.2c-86-46-430-254-452-275c-40-37-39-93,2-134c26-25,36-30,65-25c30,5,454,248,497,285c24,20,33,74,18,103
		C1272.8,2479.2,1221.8,2497.2,1170.8,2471.2z"/>
	<path d="M6827.8,2453.2c-21-12-47-61-47-88c0-11,10-31,23-45c31-36,475-286,506-286c65,0,113,90,78,144c-9,14-116,81-245,155
		C6909.8,2466.2,6873.8,2480.2,6827.8,2453.2z"/>
	<path d="M4023.8,1484.2c-74-17-107-63-124-171c-12-77,2-193,29-228c88-119,264-78,272,64c5,81,0,97-40,137c-39,40-41,40-100,36
		c-40-3-66-11-81-24l-22-19l7,40c19,106,111,150,154,75c13-24,24-30,50-30c37,0,37-2,16,50
		C4161.8,1472.2,4093.8,1501.2,4023.8,1484.2z M4107.8,1244.2c60-55,24-170-53-170c-73,0-113,112-59,165
		C4025.8,1270.2,4077.8,1272.2,4107.8,1244.2z"/>
	<path d="M5613.8,1260.2c-51-44-41-75,91-311c160-284,159-283,200-290c39-8,89,14,107,46c6,12,9,37,6,55c-6,34-249,476-279,506
		C5711.8,1293.2,5647.8,1289.2,5613.8,1260.2z"/>
	<path d="M2380.8,1262.2c-15-8-79-102-169-248c-160-258-167-278-118-328c20-20,37-27,67-27c60,0,47-16,297,394c38,62,63,115,63,132
		C2520.8,1246.2,2438.8,1292.2,2380.8,1262.2z"/>
	<path d="M4003.8,829.2c-17-7-36-22-42-34c-16-28-15-565,1-594c28-53,97-64,145-23l28,24l3,265c3,275-3,339-36,355
		C4068.8,840.2,4034.8,842.2,4003.8,829.2z"/>
	<ellipse class="st0" cx="4050" cy="4027.2" rx="22.5" ry="23"/>
</g>
</svg>
