<svg version="1.1" id="Capa_1" xmlns="http://www.w3.org/2000/svg" x="0" y="0" viewBox="0 0 612 612" xml:space="preserve"><style>.st0{fill:#d5aa82}</style><path class="st0" d="M310.2 442.1c-91 0-163.7-53.9-198.3-135.3 34.9-81.4 107.6-135.3 198.3-135.3s163.7 53.9 198.6 135.3c-34.9 81.3-107.9 135.3-198.6 135.3zm0-32.4c72 0 134.1-42.1 163-102.9-29-60.8-91-102.9-163-102.9-71.7 0-133.7 42.1-162.7 102.9 28.7 60.8 90.7 102.9 162.7 102.9zm-75.4-102.9c0-41.8 33.7-75.4 75.1-75.4 41.8 0 75.4 34 75.4 75.4 0 41.8-34 75.4-75.4 75.4s-75.1-34-75.1-75.4zm79.8-19c0 13.1 10.3 23.7 23.7 23.7 12.8 0 23.4-10.6 23.4-23.7 0-12.8-10.3-23.4-23.4-23.4-13.1 0-23.7 10.3-23.7 23.4z"/><g id="Layer_2"><g id="eye-off-2"><path class="st0" d="M186.6 211.6l-40.1-45.1c-7.3-7.2-19.4-7.4-26.9-.6-6.7 6.1-7.6 16-2.2 23.2l41.3 46.8" id="eye-off-2-2"/></g></g><g id="Layer_2_1_"><g id="eye-off-2_1_"><path class="st0" d="M281 174.3l-15.4-58.4c-3.3-9.7-14-15.3-23.7-12.6-8.7 2.4-14 10.8-12.4 19.7l15.7 60.4" id="eye-off-2-2_1_"/></g></g><g id="Layer_2_2_"><g id="eye-off-2_2_"><path class="st0" d="M382.5 186.1l18.4-57.5c2.4-10-3.5-20.4-13.2-23.4-8.7-2.7-17.6 1.6-21.1 9.9l-19.2 59.3" id="eye-off-2-2_2_"/></g></g><g id="Layer_2_3_"><g id="eye-off-2_3_"><path class="st0" d="M456.6 234.1l40.9-44.4c6.4-8 5.4-20-2.1-26.8-6.7-6.1-16.6-6-23.3.2l-42.4 45.7" id="eye-off-2-2_3_"/></g></g></svg>