<svg version="1.1" id="Слой_1" xmlns="http://www.w3.org/2000/svg" x="0" y="0" viewBox="0 0 1200 1200" xml:space="preserve"><style>.st0{fill:#fff}</style><path class="st0" d="M4530 10491c-105-25-154-43-244-91-216-113-379-297-488-550l-36-85-1029-6c-1058-5-1042-5-1178-45-125-38-278-115-372-189-41-31-165-153-198-195-113-140-192-317-229-519-14-74-16-380-16-2811 0-2679 0-2730 20-2827 52-258 138-421 315-598s341-264 598-315c97-20 154-20 4327-20s4230 0 4327 20c257 51 421 138 598 315s264 341 315 598c20 97 20 148 20 2827s0 2730-20 2827c-41 205-112 364-225 503-33 42-157 164-198 195-94 74-245 150-372 189-150 46-162 46-1209 46h-991l-24 53c-68 148-122 247-133 247-5 0-8 5-8 11 0 13-73 103-125 154-93 93-255 195-374 235-156 52-94 50-1588 49-1288-1-1393-2-1463-18zm2819-770c57-29 97-82 152-198 27-57 49-106 49-108s20-47 45-99c25-53 45-98 45-101 0-4 24-57 82-182l20-43 1236-2 1237-3 60-29c76-37 144-105 181-181l29-60 3-2695c2-2473 1-2699-14-2745-24-72-43-104-94-155-52-52-74-65-148-91-54-19-162-19-4232-19s-4178 0-4232 19c-30 10-66 25-79 32-47 27-116 105-145 164l-29 60v5430l29 60c37 76 105 144 181 181l60 29 1237 3 1236 2 20 43c58 125 82 178 82 182 0 3 20 48 45 101 25 52 45 97 45 99s22 51 49 108c54 114 95 168 150 197 35 19 78 19 1349 20 1280 0 1314 0 1351-19z" transform="matrix(.1 0 0 -.1 0 1200)"/><path class="st0" d="M2240 7875v-385h770v770h-770v-385zm3480 368c-331-45-680-167-898-314-24-16-45-29-48-29-22 0-265-200-369-305-105-104-305-347-305-369 0-3-13-24-29-48-92-136-201-390-254-593-147-552-80-1142 184-1640 179-338 470-651 794-856 104-65 103-64 200-113 185-91 362-152 550-190 505-101 1002-36 1460 190 97 49 96 48 200 113 324 205 615 518 794 856 264 498 331 1088 184 1640-53 203-162 457-254 593-16 24-29 45-29 48 0 22-200 265-305 369-104 105-347 305-369 305-3 0-24 13-48 29-136 92-389 200-593 255-272 72-605 95-865 59zm515-773c179-33 262-58 405-126 382-181 684-541 796-949 114-417 40-875-200-1223-75-109-86-122-186-222-102-103-115-113-230-191-177-119-348-186-585-229-279-51-598-5-873 125-299 142-565 408-706 706-156 329-187 685-91 1039 43 158 123 323 232 480 72 103 259 281 373 356 101 66 246 139 334 169 244 83 506 106 731 65z" transform="matrix(.1 0 0 -.1 0 1200)"/></svg>