<?xml version="1.0" encoding="utf-8"?>
<!-- Generator: Adobe Illustrator 19.2.1, SVG Export Plug-In . SVG Version: 6.00 Build 0)  -->
<svg version="1.1" id="Слой_1" xmlns="http://www.w3.org/2000/svg" xmlns:xlink="http://www.w3.org/1999/xlink" x="0px" y="0px"
	 viewBox="0 0 1200 1200" style="enable-background:new 0 0 1200 1200;" xml:space="preserve">
<style type="text/css">
	.st0{fill:#FFFFFF;}
</style>
<g transform="translate(0.000000,1200.000000) scale(0.100000,-0.100000)">
	<path class="st0" d="M4530,10491c-105-25-154-43-244-91c-216-113-379-297-488-550l-36-85l-1029-6c-1058-5-1042-5-1178-45
		c-125-38-278-115-372-189c-41-31-165-153-198-195c-113-140-192-317-229-519c-14-74-16-380-16-2811c0-2679,0-2730,20-2827
		c52-258,138-421,315-598s341-264,598-315c97-20,154-20,4327-20s4230,0,4327,20c257,51,421,138,598,315s264,341,315,598
		c20,97,20,148,20,2827s0,2730-20,2827c-41,205-112,364-225,503c-33,42-157,164-198,195c-94,74-245,150-372,189
		c-150,46-162,46-1209,46h-991l-24,53c-68,148-122,247-133,247c-5,0-8,5-8,11c0,13-73,103-125,154c-93,93-255,195-374,235
		c-156,52-94,50-1588,49C4705,10508,4600,10507,4530,10491z M7349,9721c57-29,97-82,152-198c27-57,49-106,49-108s20-47,45-99
		c25-53,45-98,45-101c0-4,24-57,82-182l20-43l1236-2l1237-3l60-29c76-37,144-105,181-181l29-60l3-2695c2-2473,1-2699-14-2745
		c-24-72-43-104-94-155c-52-52-74-65-148-91c-54-19-162-19-4232-19s-4178,0-4232,19c-30,10-66,25-79,32c-47,27-116,105-145,164
		l-29,60v2715v2715l29,60c37,76,105,144,181,181l60,29l1237,3l1236,2l20,43c58,125,82,178,82,182c0,3,20,48,45,101
		c25,52,45,97,45,99s22,51,49,108c54,114,95,168,150,197c35,19,78,19,1349,20C7278,9740,7312,9740,7349,9721z"/>
	<path class="st0" d="M2240,7875v-385h385h385v385v385h-385h-385V7875z"/>
	<path class="st0" d="M5720,8243c-331-45-680-167-898-314c-24-16-45-29-48-29c-22,0-265-200-369-305c-105-104-305-347-305-369
		c0-3-13-24-29-48c-92-136-201-390-254-593c-147-552-80-1142,184-1640c179-338,470-651,794-856c104-65,103-64,200-113
		c185-91,362-152,550-190c505-101,1002-36,1460,190c97,49,96,48,200,113c324,205,615,518,794,856c264,498,331,1088,184,1640
		c-53,203-162,457-254,593c-16,24-29,45-29,48c0,22-200,265-305,369c-104,105-347,305-369,305c-3,0-24,13-48,29
		c-136,92-389,200-593,255C6313,8256,5980,8279,5720,8243z M6235,7470c179-33,262-58,405-126c382-181,684-541,796-949
		c114-417,40-875-200-1223c-75-109-86-122-186-222c-102-103-115-113-230-191c-177-119-348-186-585-229c-279-51-598-5-873,125
		c-299,142-565,408-706,706c-156,329-187,685-91,1039c43,158,123,323,232,480c72,103,259,281,373,356c101,66,246,139,334,169
		C5748,7488,6010,7511,6235,7470z"/>
</g>
</svg>
