<svg xmlns="http://www.w3.org/2000/svg" viewBox="0 0 512 512"><path d="M308 59.5c6.9.9 16.3 2.4 21 3.4 4.7 1.1 11.9 2.6 16 3.5 10.5 2.3 33.4 10.8 46.4 17.3 9.3 4.7 15.7 8.5 33.2 20.3 8 5.4 27.9 25.1 35.6 35.4 12.5 16.8 22.8 39.3 26.2 57.5 2.5 12.9 2.2 44-.4 55-4.2 17.3-14.5 39.9-23.8 52-6.2 8-11.5 18.3-14 27.3-5.6 20.3-2.6 49.2 7.9 77.1 6.3 16.6 6.4 16.7 5 16.7-.7 0-4.6-1.5-8.9-3.4-20.5-9.1-27-11.9-30.7-13.3-2.2-.7-7.8-3.1-12.5-5.2s-13.2-5.9-19-8.4c-5.8-2.4-14.3-6.1-19-8.2-18.3-8.1-15.7-7.7-30.5-3.9-21.4 5.5-43.5 8.8-44.9 6.6-.3-.5 1.1-2.4 3-4.3 2-1.9 5.2-5.7 7.2-8.4 2-2.8 3.9-5.2 4.2-5.5s1.6-2.9 2.9-5.8c1.4-2.9 3-5.7 3.6-6.2s9.4-2.3 19.6-4c10.1-1.7 20.7-3.8 23.5-4.6l5.1-1.4 8.9 4.6c4.9 2.6 9.6 5.2 10.4 5.9s2.6 1.6 3.9 2 4.6 2 7.3 3.6c2.6 1.6 10 5.6 16.4 9 8.7 4.6 11.4 5.6 11 4.2-.3-1-1-4.1-1.6-6.8-.5-2.8-1.9-9.3-3-14.5-5.4-25-2.7-47.1 6.9-58.3 4.6-5.4 14.1-20.6 19.1-30.7 4.6-9.2 9.7-23.5 11.9-33.2 1.5-6.6 1.4-24.3-.3-33-1.8-9-6.9-24.6-9.9-29.9-1.2-2.2-3.1-5.7-4.3-7.8-5.4-9.9-17.5-23.8-28.6-32.7-7.5-6.1-25.5-18.4-26.9-18.4-.4 0-3.2-1.4-6.1-3.1-7.1-4.2-29.2-13.1-38.3-15.4-2.7-.7-10.2-2.7-16.5-4.4-13.5-3.7-34.7-6.1-53.3-6.1-19.7 0-32.4 2.1-52.2 8.6-21.4 6.9-36 13.9-53.2 25.5-4 2.7-7.5 4.9-7.9 4.9-.6 0-7.8 6-17.3 14.4-6.1 5.4-15.5 15.4-20.2 21.6-10.7 13.9-19.2 33.9-20.5 48.3l-.7 6.8-10.9 5.7c-6.1 3.1-13.6 7.3-16.7 9.3-10.5 6.6-10.1 6.9-10.1-6.9 0-6.6.7-15.6 1.5-20 1.9-10.1 8.5-29.4 12.7-37.4 1.8-3.3 4.1-7.7 5.1-9.6 3.5-6.7 17.1-23.8 26.2-32.8 10.7-10.6 25.8-22.2 39.8-30.5 5.4-3.3 10.2-5.9 10.6-5.9s4.2-1.8 8.4-4c19.1-10.1 56.6-20.3 85.7-23.3 10.1-1.1 44.6-.6 56 .8zM186.8 208.1c12.6 1.3 37.4 7.1 44.9 10.5 3.2 1.4 8.2 3.5 11.1 4.6s7.6 3.5 10.5 5.5c2.8 1.9 6.2 3.9 7.4 4.4 6.2 2.4 27.4 22.1 34.7 32.4 4.6 6.3 12.8 23.2 15.2 31 2.6 8.6 2.6 38.1.1 47.5-2.5 9.3-10 24.2-16.3 32.5-8.6 11.6-24 25.4-35.7 32-23 13.2-42.2 19.2-71.7 22.6-17.9 2-43.9-.2-64.9-5.5-6-1.6-2.7-2.6-31.6 9.6-3.8 1.6-10.3 4.5-14.3 6.4-4 1.8-7.7 3.4-8.3 3.4s-5.3 2-10.6 4.5c-9.7 4.6-13.3 5.5-13.3 3.2 0-.6 1.5-5.1 3.3-9.7 4.2-10.6 5.5-16 6.5-27.3.8-9.3-.1-23.5-1.9-27.7-1.2-2.9-9.1-16.3-10-17-3.1-2.5-11.6-21.3-14.3-31.7-2.4-9.2-2.2-33.7.3-42.8 5-17.9 14.5-33.8 28.3-47.1 8.4-8.1 18.5-16.4 20-16.4.6 0 2.5-1 4.2-2.3 7.3-5.5 28.9-14.9 39.9-17.3 3.9-.9 9.2-2 11.7-2.6 16-3.6 37.3-4.6 54.8-2.7z" fill="#e7c095"/></svg>