<svg xmlns="http://www.w3.org/2000/svg" viewBox="0 0 612 612"><path d="M140.8 364.2c.2-.2.6-.3.7-.6 1.7-7.3 6.7-12.3 11.8-17.4 22.8-22.7 45.6-45.5 68.3-68.3 42.7-42.7 85.3-85.5 128-128.2 7.9-7.9 14.6-7.9 22.6.1l103.4 103.4c7.9 7.9 7.9 14.7 0 22.6-35.2 35.3-70.5 70.5-105.7 105.8-10.5 10.5-20.8 21.3-31.3 32.1 1.1.9 2.3.5 3.4.5h120.2c9.1 0 15.7 4.1 18.4 11.5 4.5 12-3.7 23.5-17 24.2H225.8c-12.8 0-23.5-4.6-32.2-13.9-10.9-11.6-22-23.2-32.9-34.8-7.5-8.1-16.5-15.2-19.9-26.4v-10.6zm114.4 50h32.6c1.9 0 3.3-.5 4.7-1.9 12.6-12.9 25.4-25.8 38.1-38.7 4.4-4.5 4.4-7.6-.1-12.2-21.7-22.1-43.3-44.3-65-66.4-4.7-4.8-7.6-4.8-12.4 0-22.9 22.9-45.8 45.8-68.8 68.7-4.9 4.9-4.8 7.7-.2 12.5 11.5 12 23 24.1 34.4 36.2 1.3 1.4 2.6 1.7 4.3 1.7 10.9.1 21.7.1 32.4.1z" fill="#d5aa82"/></svg>