<?xml version="1.0" encoding="utf-8"?>
<!-- Generator: Adobe Illustrator 19.2.1, SVG Export Plug-In . SVG Version: 6.00 Build 0)  -->
<svg version="1.1" id="Layer_1" xmlns="http://www.w3.org/2000/svg" xmlns:xlink="http://www.w3.org/1999/xlink" x="0px" y="0px"
	 viewBox="0 0 512 512" style="enable-background:new 0 0 512 512;" xml:space="preserve">
<style type="text/css">
	.st0{fill:#E1AF79;}
</style>
<g>
	<path class="st0" d="M223.4,110.8c1,1,2,2,3,3"/>
	<path class="st0" d="M239.5,126.9c0.5,0.5,0.8,0.8,0.8,0.8c4.2,4.2,9.8,6.6,15.8,6.6c3.6,0,7-0.8,10-2.3"/>
	<path class="st0" d="M278,121.7c0.5-0.5,1.1-1.1,1.7-1.7"/>
	<path class="st0" d="M440.2,106.3l13.4-18l15.8-15.8c-28.3-28.3-65.6-42.6-102.7-42.6s-74.4,14.2-102.8,42.5l-7.9,7.9l-7.9-7.9
		c-28.3-28.3-65.7-42.6-102.8-42.6S70.9,44,42.5,72.4C14.2,100.8,0,138.1,0,175.2S14.2,249.6,42.6,278l23.7,23.7l173.9,173.9
		c8.7,8.7,22.9,8.7,31.6,0l173.9-173.9l23.7-23.7c28.4-28.3,42.6-65.7,42.6-102.8s-14.2-74.4-42.5-102.7l-2.4-2.1l-13.5,17.9
		l15.8-15.8l-15.8,15.8l-13.4,17.9l13.4-17.9c0,0-1.8,1.8-4.1,4.1"/>
</g>
</svg>
