<?xml version="1.0" encoding="utf-8"?>
<!-- Generator: Adobe Illustrator 19.2.1, SVG Export Plug-In . SVG Version: 6.00 Build 0)  -->
<svg version="1.1" id="Layer_1" xmlns="http://www.w3.org/2000/svg" xmlns:xlink="http://www.w3.org/1999/xlink" x="0px" y="0px"
	 viewBox="0 0 512 512" style="enable-background:new 0 0 512 512;" xml:space="preserve">
<style type="text/css">
	.st0{fill:#F3DFC9;}
	.st1{fill:#E1AF79;}
</style>
<g>
	<path class="st0" d="M223.4,112.8c1,1,2,2,3,3"/>
	<path class="st0" d="M239.5,128.9c0.5,0.5,0.8,0.8,0.8,0.8c4.2,4.2,9.8,6.6,15.8,6.6c3.6,0,7-0.8,10-2.3"/>
	<path class="st0" d="M278,123.7c0.5-0.5,1.1-1.1,1.7-1.7"/>
	<path class="st0" d="M440.2,108.3l13.4-18l15.8-15.8c-28.3-28.3-65.6-42.6-102.7-42.6s-74.4,14.2-102.8,42.5l-7.9,7.9l-7.9-7.9
		c-28.3-28.3-65.7-42.6-102.8-42.6S70.9,46,42.5,74.4C14.2,102.8,0,140.1,0,177.2S14.2,251.6,42.6,280l23.7,23.7l173.9,173.9
		c8.7,8.7,22.9,8.7,31.6,0l173.9-173.9l23.7-23.7c28.4-28.3,42.6-65.7,42.6-102.8s-14.2-74.4-42.5-102.7l-2.4-2.1l-13.5,17.9
		l15.8-15.8l-15.8,15.8l-13.4,17.9l13.4-17.9c0,0-1.8,1.8-4.1,4.1"/>
</g>
<g>
	<path class="st1" d="M453.6,88.3l15.8-15.8c-28.3-28.3-65.6-42.6-102.7-42.6s-74.4,14.2-102.8,42.5l0,0l0,0l-7.9,7.9l-7.9-7.9l0,0
		c-28.3-28.3-65.7-42.6-102.8-42.6S70.9,44,42.5,72.4C14.2,100.8,0,138.1,0,175.2S14.2,249.6,42.6,278l23.7,23.7l173.9,173.9
		c8.7,8.7,22.9,8.7,31.6,0l173.9-173.9l23.7-23.7l0,0c28.4-28.3,42.6-65.7,42.6-102.8s-14.2-74.4-42.5-102.7l-2.4-2.1l0,0
		L453.6,88.3l15.8-15.8L453.6,88.3l-13.4,17.9l0,0L453.6,88.3l-15.8,15.8c19.7,19.7,29.4,45.3,29.4,71.1s-9.8,51.5-29.5,71.2l0,0
		L414,270.1L256,428.2L97.9,270.1l-23.7-23.7c-19.7-19.7-29.4-45.3-29.5-71.2c0-25.8,9.8-51.4,29.5-71.2
		c19.7-19.7,45.3-29.4,71.2-29.5c25.8,0,51.4,9.8,71.2,29.5l0,0l23.7,23.7c4.2,4.2,9.8,6.6,15.8,6.6c6,0,11.6-2.3,15.8-6.5
		l23.7-23.7l0,0l0,0c19.7-19.7,45.3-29.4,71.1-29.4c25.8,0,51.4,9.8,71.1,29.5l2.4,2.1L453.6,88.3z"/>
</g>
</svg>
