<?xml version="1.0" encoding="utf-8"?>
<!-- Generator: Adobe Illustrator 19.2.1, SVG Export Plug-In . SVG Version: 6.00 Build 0)  -->
<svg version="1.1" id="Слой_1" xmlns="http://www.w3.org/2000/svg" xmlns:xlink="http://www.w3.org/1999/xlink" x="0px" y="0px"
	 viewBox="0 0 1250 1250" style="enable-background:new 0 0 1250 1250;" xml:space="preserve">
<style type="text/css">
	.st0{fill:#E7C095;}
</style>
<g transform="translate(0.000000,1250.000000) scale(0.100000,-0.100000)">
	<path class="st0" d="M6015,10560c-636-30-1267-190-1809-462c-329-165-644-378-929-628c-119-104-400-388-418-422c-7-13,1-23,44-48
		c28-18,114-75,190-128c132-91,137-96,121-113c-10-11-15-19-11-19c3,0,63,57,134,128c603,597,1379,1007,2189,1157
		c284,52,367,59,729,60c354,0,468-9,720-55c679-125,1301-408,1835-836c74-60,213-185,308-278l172-169l186,124
		c103,68,191,127,197,131c16,10-29,63-187,221c-813,815-1863,1280-3021,1337C6250,10570,6254,10570,6015,10560z"/>
	<path class="st0" d="M9361,8421c-283-180-516-332-518-337s8-16,21-24c60-37,197-164,281-263c353-409,572-947,661-1622
		c38-292,6-562-70-581c-38-9-61,2-126,63l-60,55l-70-28c-39-15-73-31-76-35c-8-14,158-148,230-185c51-27,84-38,130-41l61-4l550,289
		l550,290l7,38c4,22,11,136,14,254c23,761-171,1448-555,1965c-85,115-333,367-435,443c-38,29-72,52-75,51
		C9878,8749,9644,8601,9361,8421z"/>
	<path class="st0" d="M2494,8622c-38-33-110-102-159-153c-409-423-655-1028-731-1794c-17-169-21-647-7-759l8-60l535-283
		c518-274,537-283,591-283c81,0,190,56,292,151c43,39,75,75,70,80c-4,4-37,19-73,33l-64,26l-41-38c-121-115-175-109-210,23
		c-76,287,47,992,261,1495c157,367,405,722,653,933c30,26,53,48,50,50c-16,14-1076,631-1090,634C2569,8680,2536,8659,2494,8622z"/>
	<path class="st0" d="M6370,8035c-107-13-465-62-795-109c-469-67-609-91-642-107c-66-33-150-115-335-328c-94-108-233-257-310-332
		c-84-82-138-143-138-155c1-71,110-195,226-256c94-50,170-68,280-68c229,0,403,92,674,358c69,67,132,125,141,127c22,7,777-73,798-85
		c39-20,866-563,1296-850c448-299,1267-881,1348-958c64-62,92-118,92-187c0-112-69-188-182-202c-44-5-57-1-147,46
		c-54,28-157,84-230,125c-422,237-1094,599-1121,603c-17,3-47-2-68-10c-50-22-77-68-77-136c0-49,3-57,38-90c23-22,242-148,586-336
		c315-172,564-314,583-333c80-79,100-184,52-277c-41-79-127-124-209-110c-21,4-283,140-606,316c-321,175-584,312-604,315
		c-74,11-143-57-143-141c0-86,5-90,398-304c391-213,445-251,495-356c61-125,2-272-123-306c-86-23-142-8-324,86
		c-531,275-594,305-637,305c-118,0-179-143-98-230c15-16,120-76,234-135c139-71,216-117,234-138c92-108,83-257-18-306
		c-77-37-98-31-379,95c-142,64-262,113-267,110c-11-7-107-235-101-240c11-11,481-230,528-247c148-52,359,1,461,117
		c60,69,110,195,110,280v41l58-13c119-28,256-14,360,37c133,65,232,213,254,379l11,86l66-18c219-57,442,44,541,245
		c32,66,64,195,58,237c-4,24-2,25,47,22c115-8,256,41,339,118c157,145,199,405,96,598c-46,87-121,174-195,227c-37,26-63,51-58,55
		c4,4,26,13,48,20s152,67,289,134l249,121l-6,155c-10,247-50,459-133,703c-120,350-325,694-552,929l-55,57l-41-25
		c-145-89-330-163-462-185c-86-14-157-2-383,66c-236,71-854,295-1211,439c-63,25-121,45-130,45C6572,8058,6477,8048,6370,8035z"/>
	<path class="st0" d="M3725,7772c-43-27-172-167-256-278c-341-454-533-989-556-1549c-6-170-1-197,43-236c11-9,125-67,254-129
		c267-130,286-143,579-408c101-92,189-167,194-167s24,50,42,110c18,61,37,121,42,135c10,23,1,34-146,172c-256,242-281,260-525,378
		l-216,105l6,85c30,435,173,852,415,1212c91,135,219,290,235,284c20-8,333-84,371-90c28-5,37,0,80,48c76,83,155,196,141,201
		c-7,2-47,9-88,15c-110,16-289,57-417,96C3794,7795,3767,7797,3725,7772z"/>
	<path class="st0" d="M10550,5475c-129-57-238-106-242-107c-4-2-17-52-28-113c-69-361-204-766-360-1075c-122-242-299-518-478-742
		c-133-167-448-483-612-614c-572-456-1205-743-1895-858c-265-44-354-51-685-51c-336,1-451,10-730,61c-1578,288-2856,1494-3235,3053
		c-25,102-49,196-53,209c-6,20-48,41-247,123c-132,55-246,107-253,116c-15,21-16,29,8-134c187-1272,895-2400,1960-3122
		c659-447,1406-708,2213-772c191-15,674-6,857,15c932,111,1791,489,2480,1093c755,661,1266,1528,1470,2493c48,223,90,531,74,529
		C10789,5579,10679,5532,10550,5475z"/>
	<path class="st0" d="M4293,5266c-61-29-120-86-151-149c-35-70-85-298-86-392c-1-72,3-88,32-147c71-145,225-187,363-99
		c54,34,54,34,131,251c57,164,61,181,62,265c0,73-4,99-22,140C4559,5273,4424,5327,4293,5266z"/>
	<path class="st0" d="M5000,5074c-62-19-135-76-169-130c-55-86-270-567-282-628c-25-135,30-264,136-318c91-47,236-14,306,71
		c27,32,274,536,322,659c38,97,13,217-62,292C5182,5088,5100,5106,5000,5074z"/>
	<path class="st0" d="M5617,4835c-47-18-130-77-149-108c-8-12-24-46-36-74c-12-29-93-205-178-390c-134-290-157-347-161-399
		c-10-111,41-209,131-257c63-33,174-31,244,6c85,45,120,89,209,262c133,262,264,546,280,610c36,141-18,284-130,340
		C5768,4854,5681,4858,5617,4835z"/>
	<path class="st0" d="M6068,4186c-56-15-122-58-153-101c-28-38-218-399-233-444c-18-53-15-160,7-206c22-47,64-89,104-104
		c85-32,212,2,282,76c35,36,221,374,251,457c19,51,18,157-2,204c-17,42-57,88-94,107C6190,4196,6119,4201,6068,4186z"/>
</g>
</svg>
