<?xml version="1.0" encoding="utf-8"?>
<!-- Generator: Adobe Illustrator 19.2.1, SVG Export Plug-In . SVG Version: 6.00 Build 0)  -->
<svg version="1.1" id="Слой_1" xmlns="http://www.w3.org/2000/svg" xmlns:xlink="http://www.w3.org/1999/xlink" x="0px" y="0px"
	 viewBox="0 0 1717 1717" style="enable-background:new 0 0 1717 1717;" xml:space="preserve">
<style type="text/css">
	.st0{fill:#BAC0BE;}
</style>
<g transform="translate(0.000000,1717.000000) scale(0.100000,-0.100000)">
	<path class="st0" d="M8085,17160c-1978-125-3807-892-5262-2207c-152-137-469-454-606-606C983,12982,225,11274,41,9445
		c-61-602-53-1294,20-1900c204-1689,917-3296,2034-4580c627-721,1343-1316,2166-1797C5989,155,8047-216,10040,126
		c2316,397,4361,1725,5680,3689c1189,1771,1669,3916,1354,6049c-305,2067-1380,3975-2999,5322c-808,673-1726,1189-2710,1524
		c-690,235-1349,372-2095,436C9053,17164,8302,17173,8085,17160z M9190,15475c1181-110,2255-486,3225-1130
		c842-559,1575-1326,2097-2195c817-1362,1139-2952,917-4540c-287-2053-1503-3883-3294-4957c-1484-890-3244-1187-4960-837
		c-1918,391-3611,1619-4589,3327c-515,899-804,1834-898,2907c-17,193-17,879,0,1070c75,844,260,1575,583,2296
		c460,1025,1185,1947,2074,2635c1108,858,2392,1342,3820,1439C8356,15503,8994,15494,9190,15475z"/>
	<path class="st0" d="M10056,13599c-706-62-1267-665-1233-1324c10-187,72-378,173-532c55-83,193-223,278-282
		c208-143,434-211,703-212c163,0,280,19,438,72c471,157,819,551,901,1019c21,124,15,321-15,435c-103,395-398,684-806,790
		c-77,20-301,49-340,44C10150,13608,10105,13604,10056,13599z"/>
	<path class="st0" d="M8640,10409c-201-23-524-114-736-207c-437-193-813-447-1234-834c-66-60-120-117-120-125s51-109,113-223
		l113-209l145,121c248,206,479,373,607,437c192,97,375,75,440-52c36-68,41-169,14-274s-66-206-330-833c-399-950-605-1467-785-1970
		c-313-874-429-1365-398-1683c49-500,368-829,896-923c136-24,417-24,575,0c245,37,506,117,725,220c486,230,1195,766,1813,1370
		l162,159l-48,91c-67,124-180,313-192,321c-6,3-36-18-68-48c-298-280-722-608-889-689c-176-86-298-55-343,87c-18,55-16,192,5,300
		c38,206,232,751,808,2280c168,446,319,855,336,911c232,751,46,1322-525,1607c-153,77-397,145-596,166
		C9016,10422,8750,10421,8640,10409z"/>
</g>
</svg>
