<svg version="1.1" id="Слой_1" xmlns="http://www.w3.org/2000/svg" x="0" y="0" viewBox="0 0 1717 1717" xml:space="preserve"><style>.st0{fill:#bac0be}</style><path class="st0" d="M8085 17160c-1978-125-3807-892-5262-2207-152-137-469-454-606-606C983 12982 225 11274 41 9445c-61-602-53-1294 20-1900 204-1689 917-3296 2034-4580 627-721 1343-1316 2166-1797C5989 155 8047-216 10040 126c2316 397 4361 1725 5680 3689 1189 1771 1669 3916 1354 6049-305 2067-1380 3975-2999 5322-808 673-1726 1189-2710 1524-690 235-1349 372-2095 436-217 18-968 27-1185 14zm1105-1685c1181-110 2255-486 3225-1130 842-559 1575-1326 2097-2195 817-1362 1139-2952 917-4540-287-2053-1503-3883-3294-4957-1484-890-3244-1187-4960-837-1918 391-3611 1619-4589 3327-515 899-804 1834-898 2907-17 193-17 879 0 1070 75 844 260 1575 583 2296 460 1025 1185 1947 2074 2635 1108 858 2392 1342 3820 1439 191 13 829 4 1025-15z" transform="matrix(.1 0 0 -.1 0 1717)"/><path class="st0" d="M10056 13599c-706-62-1267-665-1233-1324 10-187 72-378 173-532 55-83 193-223 278-282 208-143 434-211 703-212 163 0 280 19 438 72 471 157 819 551 901 1019 21 124 15 321-15 435-103 395-398 684-806 790-77 20-301 49-340 44-5-1-50-5-99-10zm-1416-3190c-201-23-524-114-736-207-437-193-813-447-1234-834-66-60-120-117-120-125s51-109 113-223l113-209 145 121c248 206 479 373 607 437 192 97 375 75 440-52 36-68 41-169 14-274s-66-206-330-833c-399-950-605-1467-785-1970-313-874-429-1365-398-1683 49-500 368-829 896-923 136-24 417-24 575 0 245 37 506 117 725 220 486 230 1195 766 1813 1370l162 159-48 91c-67 124-180 313-192 321-6 3-36-18-68-48-298-280-722-608-889-689-176-86-298-55-343 87-18 55-16 192 5 300 38 206 232 751 808 2280 168 446 319 855 336 911 232 751 46 1322-525 1607-153 77-397 145-596 166-112 13-378 12-488 0z" transform="matrix(.1 0 0 -.1 0 1717)"/></svg>