<?xml version="1.0" encoding="utf-8"?>
<!-- Generator: Adobe Illustrator 19.2.1, SVG Export Plug-In . SVG Version: 6.00 Build 0)  -->
<svg version="1.1" id="Facebook" xmlns="http://www.w3.org/2000/svg" xmlns:xlink="http://www.w3.org/1999/xlink" x="0px" y="0px"
	 viewBox="0 0 144.1 144" style="enable-background:new 0 0 144.1 144;" xml:space="preserve">
<style type="text/css">
	.st0{fill:#777781;}
</style>
<path class="st0" d="M93.7,36.8H79.5h-0.1c-14.3,0-16.3,10-16.3,18.8c0,0.1,0,0.2,0,0.2V62h-9.8c-0.6,0-1.1,0.4-1.1,1.1v15.2
	c0,0.6,0.4,1.1,1.1,1.1h9.8v33.3c0,0.6,0.4,1.1,1.1,1.1h14.3c0.6,0,1.1-0.4,1.1-1.1V79.4h14.1c0.6,0,1.1-0.4,1.1-1.1V63.1
	c0-0.6-0.4-1.1-1.1-1.1H78.6v-8.2h15.2c0.6,0,1.1-0.4,1.1-1.1V37.9C94.8,37.4,94.3,36.8,93.7,36.8z"/>
</svg>
