<?xml version="1.0" encoding="utf-8"?>
<!-- Generator: Adobe Illustrator 19.2.1, SVG Export Plug-In . SVG Version: 6.00 Build 0)  -->
<svg version="1.1" id="Слой_1" xmlns="http://www.w3.org/2000/svg" xmlns:xlink="http://www.w3.org/1999/xlink" x="0px" y="0px"
	 viewBox="0 0 512 512" style="enable-background:new 0 0 512 512;" xml:space="preserve">
<g transform="translate(0.000000,512.000000) scale(0.100000,-0.100000)">
	<path d="M675,3888c-182-34-340-197-374-382c-15-83-15-2009,0-2092c35-190,193-348,383-383c42-8,607-11,1850-11
		c1953,0,1868-2,1979,57c67,36,164,133,200,200c57,107,57,99,57,1179c0,669-4,1010-11,1050c-35,190-193,348-383,383
		C4299,3903,749,3902,675,3888z M1959,3577c-15-12-52-42-84-67c-209-163-384-480-441-795c-24-134-24-376-1-502
		c35-189,111-382,212-534c58-86,179-216,259-276c34-26,65-50,71-55c5-4-156-8-357-8h-366l-7,63c-33,297-257,527-555,569l-80,11v476
		v477l97,16c291,50,501,280,538,591l7,57h367l366-1L1959,3577z M3822,3499c45-284,254-500,531-547l97-16v-477v-477l-62-7
		c-138-16-274-77-377-170c-99-89-179-255-196-402l-7-63h-366c-201,0-362,4-357,8c6,5,37,29,71,55c234,177,411,480,471,810
		c22,123,23,370,0,492c-60,328-223,627-437,800c-34,28-74,60-89,72l-26,22l365,1h366L3822,3499z M2672,3403c15-14,18-32,18-123v-108
		l93-21c114-27,221-77,225-107c4-25-53-221-69-241c-19-22-47-15-120,28c-95,55-169,79-243,78c-157-2-236-101-155-194
		c41-46,88-73,229-130c63-26,140-61,170-78c75-42,157-121,189-182c23-45,26-61,26-155c0-93-3-112-27-162c-47-102-139-182-260-229
		l-58-22v-110c0-150,4-147-161-147c-160,0-159-1-159,146v101l-63,6c-114,11-257,77-257,118c0,11,14,70,32,131c40,140,47,144,146,94
		c94-47,169-66,262-66c98,1,155,25,176,76c18,44,11,87-22,131c-32,42-89,75-232,133c-261,106-373,211-389,363
		c-11,106,48,235,144,313c45,37,168,104,191,104c9,0,12,30,12,117c0,157-4,153,158,153C2631,3420,2657,3417,2672,3403z"/>
</g>
</svg>
