<?xml version="1.0" encoding="utf-8"?>
<!-- Generator: Adobe Illustrator 19.2.1, SVG Export Plug-In . SVG Version: 6.00 Build 0)  -->
<svg version="1.1" id="Слой_1" xmlns="http://www.w3.org/2000/svg" xmlns:xlink="http://www.w3.org/1999/xlink" x="0px" y="0px"
	 viewBox="0 0 1024 1024" style="enable-background:new 0 0 1024 1024;" xml:space="preserve">
<style type="text/css">
	.st0{fill:#999999;}
</style>
<g transform="translate(0.000000,1024.000000) scale(0.100000,-0.100000)">
	<path class="st0" d="M8215,8944c-83-18-201-64-760-299c-2086-877-2395-1007-4590-1932c-594-251-1235-520-1425-600
		c-384-161-483-210-575-283c-138-110-224-277-225-436c0-70,33-193,71-265c63-117,194-237,344-313c39-19,365-134,725-255
		c720-241,922-309,927-315c2-2,92-291,199-642c426-1395,435-1422,524-1557c102-156,230-227,412-227c133,0,252,51,373,161
		c44,40,123,111,175,159c501,458,681,620,689,620c5,0,110-77,233-172c122-94,297-228,388-298c91-69,291-223,445-341
		c495-380,485-373,563-402c86-32,220-57,302-57c83,0,223,27,299,57c168,66,328,221,402,389c12,26,71,301,134,627
		c63,320,261,1334,440,2252c179,919,403,2062,497,2540c157,801,170,879,171,985c2,132-11,195-59,295C8775,8885,8509,9006,8215,8944z
		 M8310,8289c0-20-1181-6064-1191-6097c-15-45-63-75-109-66c-53,9-84,28-240,149c-141,109-1500,1151-1671,1281l-57,43l-568-518
		c-313-285-570-518-571-517c-8,7,240,1533,250,1542c25,22,906,842,1267,1179c207,192,636,593,955,890c1010,940,951,880,940,950
		c-4,22-14,46-23,53c-21,16-70,15-121-3c-23-8-319-186-659-397c-339-210-1209-748-1932-1196s-1324-819-1335-824
		c-15-7-192,49-745,236c-399,134-815,274-925,311c-110,38-203,71-207,74c-4,4,315,142,710,308c394,167,868,366,1052,444
		c3483,1468,5150,2168,5168,2169C8304,8300,8310,8295,8310,8289z"/>
</g>
</svg>
