<svg xmlns="http://www.w3.org/2000/svg" xmlns:xlink="http://www.w3.org/1999/xlink" width="50" height="48" viewBox="0 0 25 24"><defs><path id="a" d="M11.893.063c6.567 0 11.891 5.324 11.891 11.892 0 6.567-5.324 11.891-11.891 11.891S.002 18.522.002 11.955C.002 5.387 5.326.063 11.893.063"/><path id="d" d="M.005.062h23.933V24H.005z"/><path id="f" d="M5.695 7.647v1.01H.043l.002-.03c.052-.948.3-1.638.766-2.21.384-.472.85-.824 1.802-1.421-.003.002.337-.211.435-.274.513-.328.842-.583 1.102-.884.326-.378.497-.792.497-1.278 0-.942-.668-1.595-1.632-1.595-1.12 0-1.695.85-1.725 2.13v.026H.284l-.002-.026-.01-.232c0-1.71 1.114-2.848 2.79-2.848 1.639 0 2.706.993 2.706 2.523 0 .781-.28 1.414-.82 1.975-.407.423-.82.71-1.763 1.282l-.039.023-.305.181c-.45.27-.723.459-.964.69-.296.282-.492.592-.586.958h4.403zM11.598.015v5.56h1.173V6.58h-1.173v2.077h-1.012V6.58H6.817V5.496L10.618.015h.98zm-1.012 1.602L7.918 5.573h2.668V1.617z"/><linearGradient id="b" x1="-5%" x2="105%" y1="50%" y2="50%"><stop offset="0%" stop-color="#383835"/><stop offset="100%" stop-color="#0C0E0F"/></linearGradient></defs><g fill="none" fill-rule="evenodd" transform="translate(.76)"><g transform="translate(.076 .076)"><mask id="c" fill="#fff"><use xlink:href="#a"/></mask><path fill="url(#b)" d="M11.893.063c6.567 0 11.891 5.324 11.891 11.892 0 6.567-5.324 11.891-11.891 11.891S.002 18.522.002 11.955C.002 5.387 5.326.063 11.893.063" mask="url(#c)"/></g><mask id="e" fill="#fff"><use xlink:href="#d"/></mask><path fill="#70B844" d="M11.97 22.682c-5.883 0-10.652-4.768-10.652-10.651S6.087 1.379 11.969 1.379c5.883 0 10.652 4.77 10.652 10.652 0 5.883-4.77 10.651-10.652 10.651zm0-22.62C5.358.062 0 5.42 0 12.03S5.359 24 11.97 24c6.61 0 11.968-5.359 11.968-11.97C23.938 5.42 18.58.063 11.97.063z" mask="url(#e)"/><path fill="#FFFFFE" d="M11.257 15.342v1.01H5.605l.002-.03c.052-.948.3-1.637.766-2.21.384-.472.849-.824 1.802-1.42l.435-.275c.512-.328.841-.583 1.102-.884.326-.378.497-.792.497-1.278 0-.942-.668-1.595-1.632-1.595-1.12 0-1.695.851-1.725 2.13v.026H5.846l-.002-.026-.01-.231c0-1.71 1.114-2.849 2.79-2.849 1.638 0 2.705.993 2.705 2.523 0 .782-.28 1.415-.82 1.976-.406.423-.819.71-1.762 1.281l-.039.023c-.044.027-.25.148-.305.182-.45.269-.723.458-.964.688-.297.283-.492.593-.586.96h4.403zM17.16 7.71v5.56h1.173v1.004H17.16v2.077h-1.012v-2.077h-3.769v-1.083l3.801-5.48h.98zm-1.012 1.602l-2.668 3.956h2.668V9.312z"/><g transform="translate(5.562 7.695)"><mask id="g" fill="#fff"><use xlink:href="#f"/></mask><path fill="#FFFFFE" d="M.043 8.656h12.728V.015H.043z" mask="url(#g)"/></g></g></svg>