<?xml version="1.0" encoding="utf-8"?>
<!-- Generator: Adobe Illustrator 19.2.1, SVG Export Plug-In . SVG Version: 6.00 Build 0)  -->
<svg version="1.1" id="Слой_1" xmlns="http://www.w3.org/2000/svg" xmlns:xlink="http://www.w3.org/1999/xlink" x="0px" y="0px"
	 viewBox="0 0 512 512" style="enable-background:new 0 0 512 512;" xml:space="preserve">
<g transform="translate(0.000000,512.000000) scale(0.100000,-0.100000)">
	<path d="M1140,3833c-79-9-200-37-280-65c-427-151-739-509-836-958c-26-119-26-381,0-500c73-338,268-626,551-817
		c122-82,275-147,435-185c69-16,133-21,338-25l253-5l-160,321l-161,321h-33c-65,1-174,31-257,71c-209,104-350,332-350,569
		c0,296,217,565,505,625c103,21,1127,21,1230,0c182-38,352-170,434-335c40-83,70-192,71-257v-33h321h322l-7,91
		c-17,220-91,438-209,614c-56,83-77,108-170,203c-165,168-374,283-627,345c-81,19-114,20-710,22C1456,3836,1159,3836,1140,3833z"/>
	<path d="M3679,3521l161-321h33c65-1,174-31,257-71c209-104,350-332,350-569c0-296-217-565-505-625c-103-21-1127-21-1230,0
		c-182,38-352,170-434,335c-40,83-70,192-71,258v32h-321h-322l7-91c30-396,238-753,571-976c126-84,292-153,455-189
		c78-17,137-19,730-19s652,2,730,19c515,113,896,494,1006,1006c26,119,26,381,0,500c-35,162-104,329-189,455c-56,83-77,108-170,203
		c-166,168-379,285-627,344c-69,16-133,21-338,25l-253,5L3679,3521z"/>
</g>
</svg>
