<svg xmlns="http://www.w3.org/2000/svg" viewBox="0 0 512 512"><path d="M490 446.61c-6.5-7-5.92-6.93-35.1-36.11l-51.8-52 7-10.5c8.8-13 21.6-38.9 26.3-53.3 8.2-25 11-43.4 11-71.2 0-17.8-.4-24.4-2.2-34.5-8.1-47.5-27.8-86.8-60.2-120.4-48-49.7-114.2-74-184-67.4-38.6 3.6-79.4 19.6-111.3 43.6-81.5 61.4-111.4 169.3-73 263.7 31.2 77 104 130.9 186.8 138.5 30.3 2.8 61.6-.9 91.2-10.6 14.2-4.7 40.2-17.5 53.3-26.3l10.5-7 53 52.8c22.54 22.54 26.22 26.13 34.17 33.71M254.4 67c57.6 11.3 104.2 52.7 121.9 108.5 5.6 17.6 7.2 28.4 7.2 48.5 0 12.8-.5 20.2-1.9 27.5-10.9 59.3-52 106.2-109.1 124.8-16.7 5.5-27.4 7-48 7.1-11.4 0-21.6-.5-25.5-1.3-26.8-5.2-47.1-13.4-66-26.7-35.2-24.6-58.4-60.7-66.6-103.4-2.8-14.5-2.6-42.8.4-57.8 4.5-22.6 14.1-45.1 27-63.2 8.6-12.1 25.1-28.6 37.2-37.2 11.3-8 29.9-17.5 42.7-21.7 8.6-2.8 25.7-6.5 34.8-7.5 9.7-1 35.3.3 45.9 2.4z"/></svg>