<?xml version="1.0" encoding="utf-8"?>
<!-- Generator: Adobe Illustrator 19.2.1, SVG Export Plug-In . SVG Version: 6.00 Build 0)  -->
<svg version="1.1" id="Слой_1" xmlns="http://www.w3.org/2000/svg" xmlns:xlink="http://www.w3.org/1999/xlink" x="0px" y="0px"
	 viewBox="0 0 1600 1600" style="enable-background:new 0 0 1600 1600;" xml:space="preserve">
<style type="text/css">
	.st0{fill:#E7C095;}
</style>
<g transform="translate(0.000000,1600.000000) scale(0.100000,-0.100000)">
	<path class="st0" d="M7795,13994c-179-18-257-29-369-50c-812-157-1527-652-1976-1367c-182-290-321-643-390-987
		c-44-223-55-334-55-590c0-249,10-362,51-574c157-811,652-1527,1367-1976c278-174,627-315,954-384c133-28,326-55,406-57l52-2l-50-8
		c-27-4-118-13-201-19c-688-49-1403-268-2034-623c-658-369-1257-920-1680-1542c-511-754-800-1593-860-2500c-5-82-10-187-10-232v-83
		h498h499l6,147c43,974,402,1838,1064,2558c304,331,723,645,1140,853c355,178,785,316,1173,376c187,29,360,45,360,34
		c0-4-26-49-58-100c-593-945-809-2081-606-3188c218-1185,916-2242,1930-2922c615-412,1303-658,2074-740c186-19,695-16,885,5
		c864,100,1633,411,2300,930c290,226,601,542,822,835c747,990,1051,2216,853,3442c-244,1505-1266,2806-2677,3409
		c-902,385-1886,463-2823,226c-131-33-363-105-461-143l-76-29l183,181c100,100,219,228,265,286c443,562,669,1238,646,1930
		c-26,766-318,1451-851,1999c-479,491-1076,792-1757,886C8281,13990,7881,14003,7795,13994z M8196,12989c789-78,1454-608,1699-1354
		c91-275,122-550,95-826c-95-960-839-1704-1799-1799c-680-67-1376,235-1779,772c-95,127-134,190-202,327c-238,474-274,1041-99,1548
		C6412,12529,7274,13080,8196,12989z M8844,8116c-16-14-67-55-113-93l-83-69l-96,12c-53,7-139,15-192,19c-52,3-122,9-155,12
		c-59,6-58,7,60,19c138,14,383,62,500,98C8868,8145,8882,8145,8844,8116z M11910,7976c418-52,763-154,1125-331
		c365-179,659-388,940-670c805-804,1164-1936,974-3068c-234-1393-1296-2511-2683-2822c-376-84-803-106-1181-60
		c-784,94-1505,444-2060,1000c-570,569-911,1284-1007,2110c-19,160-16,607,5,771c127,1010,637,1869,1455,2453
		c475,339,1081,566,1657,621c61,5,126,12,145,14C11358,8003,11793,7991,11910,7976z"/>
	<path class="st0" d="M12078,5217l-917-922l-573,573l-573,572l-355-355l-355-355l255-253c140-138,558-553,928-922l672-670l1270,1270
		c699,699,1270,1275,1270,1280c0,10-691,705-700,704C12997,6139,12582,5724,12078,5217z"/>
</g>
</svg>
