<svg version="1.1" id="Слой_1" xmlns="http://www.w3.org/2000/svg" x="0" y="0" viewBox="0 0 1600 1600" xml:space="preserve"><style>.st0{fill:#e7c095}</style><path class="st0" d="M7795 13994c-179-18-257-29-369-50-812-157-1527-652-1976-1367-182-290-321-643-390-987-44-223-55-334-55-590 0-249 10-362 51-574 157-811 652-1527 1367-1976 278-174 627-315 954-384 133-28 326-55 406-57l52-2-50-8c-27-4-118-13-201-19-688-49-1403-268-2034-623-658-369-1257-920-1680-1542-511-754-800-1593-860-2500-5-82-10-187-10-232v-83h997l6 147c43 974 402 1838 1064 2558 304 331 723 645 1140 853 355 178 785 316 1173 376 187 29 360 45 360 34 0-4-26-49-58-100-593-945-809-2081-606-3188 218-1185 916-2242 1930-2922 615-412 1303-658 2074-740 186-19 695-16 885 5 864 100 1633 411 2300 930 290 226 601 542 822 835 747 990 1051 2216 853 3442-244 1505-1266 2806-2677 3409-902 385-1886 463-2823 226-131-33-363-105-461-143l-76-29 183 181c100 100 219 228 265 286 443 562 669 1238 646 1930-26 766-318 1451-851 1999-479 491-1076 792-1757 886-108 15-508 28-594 19zm401-1005c789-78 1454-608 1699-1354 91-275 122-550 95-826-95-960-839-1704-1799-1799-680-67-1376 235-1779 772-95 127-134 190-202 327-238 474-274 1041-99 1548 301 872 1163 1423 2085 1332zm648-4873c-16-14-67-55-113-93l-83-69-96 12c-53 7-139 15-192 19-52 3-122 9-155 12-59 6-58 7 60 19 138 14 383 62 500 98 103 31 117 31 79 2zm3066-140c418-52 763-154 1125-331 365-179 659-388 940-670 805-804 1164-1936 974-3068-234-1393-1296-2511-2683-2822-376-84-803-106-1181-60-784 94-1505 444-2060 1000-570 569-911 1284-1007 2110-19 160-16 607 5 771 127 1010 637 1869 1455 2453 475 339 1081 566 1657 621 61 5 126 12 145 14 78 9 513-3 630-18z" transform="matrix(.1 0 0 -.1 0 1600)"/><path class="st0" d="M12078 5217l-917-922-573 573-573 572-355-355-355-355 255-253c140-138 558-553 928-922l672-670 1270 1270c699 699 1270 1275 1270 1280 0 10-691 705-700 704-3 0-418-415-922-922z" transform="matrix(.1 0 0 -.1 0 1600)"/></svg>