<svg xmlns="http://www.w3.org/2000/svg" viewBox="0 0 512 512"><path d="M194 29.9v27.8l-9.2 3.2c-5 1.8-13.8 5.5-19.6 8.3l-10.4 5.1-19.4-19.4L116 35.5 74.3 77.3 32.5 119l19.8 19.8 19.8 19.8-4.4 9.4c-2.5 5.2-6.1 14.3-8.2 20.2L55.7 199H3v119h54.5l2.9 8.6c1.6 4.7 5.4 13.5 8.3 19.7l5.4 11.1-19.3 19.3L35.5 396l41.8 41.7 41.7 41.8 19.8-19.8 19.8-19.8 9.4 4.5c5.2 2.4 13.2 5.7 17.7 7.3l8.3 2.8V509h119l.2-26.6.3-26.7 8-2.7c10.7-3.6 17.1-6.3 25.6-10.6l7.2-3.6 20.4 20.4 20.3 20.3 41.7-41.8 41.8-41.7-20.3-20.3-20.3-20.3 4.9-10.2c2.7-5.6 6.2-14.1 7.8-18.7l2.9-8.5H508V199h-52.8l-3.7-10.8c-2-5.9-5.8-15.2-8.4-20.7l-4.7-10 18-18.8c10-10.4 18.2-19.2 18.4-19.5.1-.4-18.5-19.4-41.3-42.2L392 35.5l-18.8 18.8-18.8 18.8-9.9-4.6c-5.5-2.6-14.8-6.3-20.7-8.3L313 56.5V2H194v27.9zm85.8 137c32.3 9.4 56.5 34 64.9 66 3.5 13.1 3.7 31.4.5 44.5-8.2 33.1-32.7 58-66.7 67.8-6.9 2-10.2 2.3-23.5 2.2-13.8-.1-16.4-.3-24.3-2.7-21.4-6.5-39.6-19.7-51.7-37.2-5.1-7.4-10.8-20.4-13.2-30.1-3-12.4-3-30.4 0-42.8 8.6-34.9 35.6-61.1 71.2-69.1 9.7-2.2 33.2-1.4 42.8 1.4z"/><path d="M241.8 211.9c-16.7 5.4-29 19.8-31.8 37.3-4.2 27.2 17.8 52.8 45.5 52.8 27.8 0 50.1-26 45.5-53.1-2.2-13-11.2-26.4-21.8-32.6-10.6-6.3-25.9-8-37.4-4.4z"/></svg>