<?xml version="1.0" encoding="utf-8"?>
<!-- Generator: Adobe Illustrator 19.2.1, SVG Export Plug-In . SVG Version: 6.00 Build 0)  -->
<svg version="1.1" id="Слой_1" xmlns="http://www.w3.org/2000/svg" xmlns:xlink="http://www.w3.org/1999/xlink" x="0px" y="0px"
	 viewBox="0 0 1024 1024" style="enable-background:new 0 0 1024 1024;" xml:space="preserve">
<style type="text/css">
	.st0{fill:#19A081;}
</style>
<g>
	<g>
		<path class="st0" d="M719,200c-10.7,2.7-16.2,8-36,34.1c-50.2,66.2-112.5,187.3-147.8,287c-8.2,23.4-9.3,24.9-11.1,17.7
			c-5.8-24.1-52.2-114.3-66.2-128.9c-1.2-1.2-5.1-6.6-8.6-12.3c-8.6-13.4-16.9-17.5-35.4-17.5c-7.8,0-18.1,1-23,2.1
			s-9.7,2.3-10.9,2.5s-7.8,3.1-14.6,6.4c-21.4,10.7-33.3,26.1-30,39.1c0.6,2.7,17.9,35.8,38.4,73.4c20.4,37.4,40.1,73.8,44,80.8
			c3.7,7,11.3,21,16.9,31.2c47.9,87,46.1,84.1,53.5,87.2c12.5,5.3,54.5,0.4,80.2-9.3c21.2-8,21.6-8.4,39.7-53.5
			c9.2-22.6,18.5-46.1,21-52.6C648,539,696.6,436,722.1,390.8c6.6-11.9,27.6-47.7,46.9-79.8c23-38.6,34.7-60.2,34.7-63.7
			c0-16.7-32.3-42.4-59.4-47.1c-4.3-0.8-9.5-1.8-11.7-2.1C730.5,197.7,724.5,198.5,719,200z"/>
	</g>
	<path class="st0" d="M800.9,360.4c-10.3,17.3-19,35.3-27.5,53.6C786,445.2,793,479.2,793,514.9c0.5,149.2-121,270.7-270.7,270.7
		c-149.2,0-270.7-121.5-270.7-270.7s121.5-270.7,270.7-270.7c29.8,0,58.4,4.9,85.3,13.8c5.4-7.3,10.9-14.5,16.3-21.8
		c4.8-6.4,9.9-12.7,14.6-19.4c-36.3-14.4-75.9-22.3-117.3-22.3c-175.5,0-318.6,143.1-318.6,318.6c0,175.5,143.1,318.6,318.6,318.6
		s318.6-143.1,318.6-318.6C839.9,457.8,825.7,405.8,800.9,360.4z"/>
</g>
</svg>
