<?xml version="1.0" encoding="utf-8"?>
<!-- Generator: Adobe Illustrator 19.2.1, SVG Export Plug-In . SVG Version: 6.00 Build 0)  -->
<svg version="1.1" id="Слой_1" xmlns="http://www.w3.org/2000/svg" xmlns:xlink="http://www.w3.org/1999/xlink" x="0px" y="0px"
	 viewBox="0 0 512 512" style="enable-background:new 0 0 512 512;" xml:space="preserve">
<style type="text/css">
	.st0{fill:#777781;}
</style>
<g transform="translate(0.000000,512.000000) scale(0.100000,-0.100000)">
	<path class="st0" d="M2365,3959c-580-35-1168-256-1632-612c-245-189-492-451-661-705l-55-82l59-88c191-282,466-563,744-762
		c331-237,738-414,1130-493c477-97,1016-75,1460,60c339,102,678,271,934,465c292,221,566,514,740,791l18,29l-48,71
		c-140,213-426,525-624,681c-156,123-351,245-545,341c-374,185-732,279-1156,305C2551,3971,2555,3971,2365,3959z M2861,3585
		c590-69,1134-332,1553-751c92-92,236-258,236-273c0-16-187-227-277-312c-401-380-882-615-1434-700c-206-32-552-32-758,0
		c-553,85-1033,320-1434,700c-90,85-277,296-277,312c0,15,146,185,237,275c417,414,960,678,1541,749C2397,3603,2708,3603,2861,3585z
		"/>
	<path class="st0" d="M2434,3260c-141-26-266-92-374-200c-87-87-140-172-177-285c-23-71-26-96-26-215s3-144,26-215
		c37-113,90-198,177-285c87-87,172-140,285-177c71-23,96-26,215-26s144,3,215,26c113,37,198,90,285,177c87,87,140,172,177,285
		c23,71,26,96,26,215s-3,144-26,215c-37,113-90,198-177,285c-135,134-281,198-470,205C2532,3267,2462,3265,2434,3260z"/>
</g>
</svg>
