<?xml version="1.0" encoding="utf-8"?>
<!-- Generator: Adobe Illustrator 19.2.1, SVG Export Plug-In . SVG Version: 6.00 Build 0)  -->
<svg version="1.1" id="Слой_1" xmlns="http://www.w3.org/2000/svg" xmlns:xlink="http://www.w3.org/1999/xlink" x="0px" y="0px"
	 viewBox="0 0 872 1090" style="enable-background:new 0 0 872 1090;" xml:space="preserve">
<style type="text/css">
	.st0{fill:#E7C095;}
</style>
<g transform="translate(0.000000,1090.000000) scale(0.100000,-0.100000)">
	<path class="st0" d="M4055,10885c-505-49-969-210-1367-474c-164-109-289-214-434-362c-202-209-343-408-474-674
		c-82-166-86-177-151-363c-104-303-159-605-181-995c-19-343,12-567,131-947c69-222,226-633,311-817c17-35,30-66,30-68s15-36,34-77
		c18-40,45-98,59-128c211-460,601-1213,892-1725c34-60,74-130,87-155c74-136,403-697,573-980c81-135,155-258,164-273
		c19-32,467-751,556-892c33-52,67-94,75-94s33,28,54,62c738,1166,1289,2102,1751,2972c32,61,67,126,78,145c29,52,360,714,395,790
		c128,277,162,355,224,500c177,416,304,781,362,1040c44,198,50,261,49,500c-4,775-213,1439-619,1965c-88,115-272,305-394,407
		c-187,157-486,336-715,428c-223,90-422,145-680,190C4649,10898,4300,10908,4055,10885z M4615,8876c173-47,319-131,446-257
		c286-282,372-696,225-1073c-96-243-303-455-538-551c-225-92-421-105-649-45c-325,85-598,353-696,683c-43,146-52,289-28,433
		c76,441,411,772,845,835C4320,8915,4516,8903,4615,8876z"/>
	<path class="st0" d="M2690,3704c-52-7-133-18-180-24c-497-67-982-185-1349-330C431,3062,34,2643,4,2126c-12-207,26-389,121-581
		c232-466,762-851,1570-1140c453-162,1107-300,1680-355c61-6,155-15,210-20c55-6,252-15,437-22c346-12,880-1,1113,22
		c55,5,150,14,210,20c830,80,1619,286,2210,579c756,374,1165,875,1165,1426c0,733-705,1273-2010,1539c-224,46-368,69-658,106
		c-237,31-217,35-325-69c-51-49-89-92-85-96c3-3,39-11,80-16c498-63,879-148,1231-274c751-268,1089-652,940-1068
		c-28-78-106-205-171-278c-156-175-472-375-812-513c-289-117-545-191-970-281c-250-53-557-92-985-127c-214-17-975-17-1195,0
		c-386,31-751,77-955,122c-22,5-76,16-120,25c-621,126-1194,361-1524,626c-423,340-486,727-170,1049c339,346,1037,596,2007,719
		c41,5,77,13,80,16c4,4-34,47-85,96l-92,89l-58-1C2811,3718,2742,3712,2690,3704z"/>
</g>
</svg>
