<?xml version="1.0" encoding="utf-8"?>
<!-- Generator: Adobe Illustrator 19.2.1, SVG Export Plug-In . SVG Version: 6.00 Build 0)  -->
<svg version="1.1" id="Слой_1" xmlns="http://www.w3.org/2000/svg" xmlns:xlink="http://www.w3.org/1999/xlink" x="0px" y="0px"
	 viewBox="0 0 888 980" style="enable-background:new 0 0 888 980;" xml:space="preserve">
<style type="text/css">
	.st0{fill:#E7C095;}
</style>
<g transform="translate(0.000000,980.000000) scale(0.100000,-0.100000)">
	<path class="st0" d="M4345,9776c-54-25-100-71-122-123c-10-26-13-139-13-553s3-527,13-553c35-83,130-147,217-147s182,64,217,147
		c10,26,13,139,13,553s-3,527-13,553c-35,83-130,147-217,147C4414,9800,4374,9790,4345,9776z"/>
	<path class="st0" d="M1391,8556c-49-18-111-74-132-120c-25-55-24-139,2-196c15-33,110-135,367-393c191-191,361-357,377-367
		c78-48,188-44,263,10c83,59,116,193,72,284c-12,27-148,169-387,407c-311,309-374,367-409,377C1492,8573,1435,8572,1391,8556z"/>
	<path class="st0" d="M7350,8561c-61-20-104-59-442-398c-240-240-362-370-373-395c-38-94-7-214,73-275c62-47,133-60,208-38
		c58,16,66,23,418,373c278,277,364,368,382,407c55,116,12,250-99,306C7473,8564,7389,8574,7350,8561z"/>
	<path class="st0" d="M4245,7694c-543-57-981-238-1383-571c-275-229-521-556-663-884c-129-298-194-584-206-909
		c-20-556,139-1026,512-1515c38-49,153-192,257-317c290-350,392-488,496-674c101-181,170-367,212-575c29-141,29-144-25-159
		c-55-15-119-69-147-124c-66-128,18-295,165-325c36-8,342-11,1007-9c895,3,957,4,995,21c88,40,138,116,139,212c0,102-70,197-167,224
		c-54,15-53,12-32,130c71,403,233,700,662,1217c360,433,486,610,603,848c289,586,293,1305,11,1955c-140,324-369,631-646,869
		c-353,302-776,495-1245,567C4689,7691,4331,7703,4245,7694z M3831,7127c54-36,79-82,79-144c0-97-27-127-185-203
		c-434-210-747-567-896-1023c-46-142-64-171-123-198c-52-24-90-23-142,0c-96,44-122,130-81,266c132,430,383,792,732,1055
		c118,89,204,141,350,212c103,49,128,58,176,58C3783,7150,3806,7144,3831,7127z"/>
	<path class="st0" d="M145,5577c-124-58-170-193-109-316c32-64,86-105,155-120c32-7,224-11,523-11c522,0,544,2,612,62
		c52,46,77,102,78,173c0,68-19,115-66,164c-68,69-38,66-618,69l-525,2L145,5577z"/>
	<path class="st0" d="M7625,5584c-86-32-148-122-148-216c0-109,77-204,183-227c78-17,971-15,1036,2c68,18,118,58,149,120
		c60,121,13,256-110,313l-50,24l-510-1C7754,5599,7658,5596,7625,5584z"/>
	<path class="st0" d="M2050,3277c-47-14-763-722-791-782c-43-92-9-226,73-285c75-54,185-58,263-10c16,10,186,176,377,367
		c375,376,387,392,388,492C2360,3217,2208,3325,2050,3277z"/>
	<path class="st0" d="M6671,3276c-49-18-111-74-132-120c-25-55-24-139,2-196c15-33,110-135,367-393c191-191,361-357,377-367
		c78-48,188-44,263,10c83,59,116,193,72,284c-12,27-148,169-387,407c-311,309-374,367-409,377C6772,3293,6715,3292,6671,3276z"/>
	<path class="st0" d="M3447,1506c-176-48-228-265-95-393c68-66,20-63,1087-63c666,0,978,3,1006,11c59,16,138,101,154,164
		c27,108-23,215-129,271c-33,18-80,19-1005,21C3696,1518,3485,1516,3447,1506z"/>
	<path class="st0" d="M3401,904c-124-62-164-218-86-336c38-57,98-87,199-98c47-6,112-20,143-32c71-26,146-99,192-185
		c61-114,178-204,308-238c82-22,485-21,568,0c130,34,252,131,310,245c38,75,121,153,190,179c30,11,94,25,141,31c62,7,99,17,130,35
		c153,90,141,326-19,401l-52,24h-986h-985L3401,904z"/>
</g>
</svg>
