<?xml version="1.0" encoding="utf-8"?>
<!-- Generator: Adobe Illustrator 19.2.1, SVG Export Plug-In . SVG Version: 6.00 Build 0)  -->
<svg version="1.1" id="Capa_1" xmlns="http://www.w3.org/2000/svg" xmlns:xlink="http://www.w3.org/1999/xlink" x="0px" y="0px"
	 viewBox="0 0 612 612" style="enable-background:new 0 0 612 612;" xml:space="preserve">
<style type="text/css">
	.st0{fill:#D5AA82;}
</style>
<g>
	<path class="st0" d="M507.6,308.3c-34.7,80.8-106.8,134.3-196.9,134.3s-162.5-53.5-197.2-134.3 M148.9,308.3
		C148.9,308.4,148.9,308.3,148.9,308.3c28.8,60.4,90.4,102.1,161.9,102.1c71.2,0,132.8-41.8,161.6-102.1"/>
	<g id="Layer_2_7_">
		<g id="eye-off-2_7_">
			<g id="eye-off-2-2_7_">
				<path class="st0" d="M433.5,402.8l39.8,44.8c7.3,7.1,19.2,7.3,26.7,0.6c6.6-6.1,7.6-15.8,2.2-23l-41-46.4"/>
			</g>
		</g>
	</g>
	<g id="Layer_2_6_">
		<g id="eye-off-2_6_">
			<g id="eye-off-2-2_6_">
				<path class="st0" d="M339.8,439.9l15.3,58c3.3,9.6,13.9,15.2,23.6,12.5c8.7-2.4,13.9-10.7,12.3-19.6l-15.6-59.9"/>
			</g>
		</g>
	</g>
	<g id="Layer_2_5_">
		<g id="eye-off-2_5_">
			<g id="eye-off-2-2_5_">
				<path class="st0" d="M239,428.2l-18.3,57.1c-2.4,9.9,3.5,20.3,13.1,23.3c8.6,2.6,17.5-1.6,20.9-9.9l19.1-58.9"/>
			</g>
		</g>
	</g>
	<g id="Layer_2_4_">
		<g id="eye-off-2_4_">
			<g id="eye-off-2-2_4_">
				<path class="st0" d="M165.4,380.5l-40.6,44.1c-6.3,8-5.4,19.9,2.1,26.6c6.7,6,16.5,5.9,23.1-0.2l42.1-45.4"/>
			</g>
		</g>
	</g>
</g>
</svg>
