<?xml version="1.0" encoding="utf-8"?>
<!-- Generator: Adobe Illustrator 19.2.1, SVG Export Plug-In . SVG Version: 6.00 Build 0)  -->
<svg version="1.1" id="Capa_1" xmlns="http://www.w3.org/2000/svg" xmlns:xlink="http://www.w3.org/1999/xlink" x="0px" y="0px"
	 viewBox="0 0 612 612" style="enable-background:new 0 0 612 612;" xml:space="preserve">
<style type="text/css">
	.st0{fill:#D5AA82;}
	.st1{display:none;}
	.st2{display:inline;fill:#D5AA82;}
	.st3{display:inline;}
</style>
<g>
	<path class="st0" d="M310.2,442.1c-91,0-163.7-53.9-198.3-135.3c34.9-81.4,107.6-135.3,198.3-135.3s163.7,53.9,198.6,135.3
		C473.9,388.1,400.9,442.1,310.2,442.1L310.2,442.1L310.2,442.1z M310.2,409.7c72,0,134.1-42.1,163-102.9
		c-29-60.8-91-102.9-163-102.9c-71.7,0-133.7,42.1-162.7,102.9C176.2,367.6,238.2,409.7,310.2,409.7L310.2,409.7L310.2,409.7z
		 M234.8,306.8c0-41.8,33.7-75.4,75.1-75.4c41.8,0,75.4,34,75.4,75.4c0,41.8-34,75.4-75.4,75.4S234.8,348.2,234.8,306.8L234.8,306.8
		L234.8,306.8z M314.6,287.8c0,13.1,10.3,23.7,23.7,23.7c12.8,0,23.4-10.6,23.4-23.7c0-12.8-10.3-23.4-23.4-23.4
		C325.2,264.4,314.6,274.7,314.6,287.8L314.6,287.8L314.6,287.8z"/>
	<g id="Layer_2">
		<g id="eye-off-2">
			<g id="eye-off-2-2">
				<path class="st0" d="M186.6,211.6l-40.1-45.1c-7.3-7.2-19.4-7.4-26.9-0.6c-6.7,6.1-7.6,16-2.2,23.2l41.3,46.8"/>
			</g>
		</g>
	</g>
	<g id="Layer_2_1_">
		<g id="eye-off-2_1_">
			<g id="eye-off-2-2_1_">
				<path class="st0" d="M281,174.3l-15.4-58.4c-3.3-9.7-14-15.3-23.7-12.6c-8.7,2.4-14,10.8-12.4,19.7l15.7,60.4"/>
			</g>
		</g>
	</g>
	<g id="Layer_2_2_">
		<g id="eye-off-2_2_">
			<g id="eye-off-2-2_2_">
				<path class="st0" d="M382.5,186.1l18.4-57.5c2.4-10-3.5-20.4-13.2-23.4c-8.7-2.7-17.6,1.6-21.1,9.9l-19.2,59.3"/>
			</g>
		</g>
	</g>
	<g id="Layer_2_3_">
		<g id="eye-off-2_3_">
			<g id="eye-off-2-2_3_">
				<path class="st0" d="M456.6,234.1l40.9-44.4c6.4-8,5.4-20-2.1-26.8c-6.7-6.1-16.6-6-23.3,0.2l-42.4,45.7"/>
			</g>
		</g>
	</g>
</g>
<g class="st1">
	<path class="st2" d="M507.6,308.3c-34.7,80.8-106.8,134.3-196.9,134.3s-162.5-53.5-197.2-134.3 M148.9,308.3
		C148.9,308.4,148.9,308.3,148.9,308.3c28.8,60.4,90.4,102.1,161.9,102.1c71.2,0,132.8-41.8,161.6-102.1"/>
	<g id="Layer_2_7_" class="st3">
		<g id="eye-off-2_7_">
			<g id="eye-off-2-2_7_">
				<path class="st0" d="M433.5,402.8l39.8,44.8c7.3,7.1,19.2,7.3,26.7,0.6c6.6-6.1,7.6-15.8,2.2-23l-41-46.4"/>
			</g>
		</g>
	</g>
	<g id="Layer_2_6_" class="st3">
		<g id="eye-off-2_6_">
			<g id="eye-off-2-2_6_">
				<path class="st0" d="M339.8,439.9l15.3,58c3.3,9.6,13.9,15.2,23.6,12.5c8.7-2.4,13.9-10.7,12.3-19.6l-15.6-59.9"/>
			</g>
		</g>
	</g>
	<g id="Layer_2_5_" class="st3">
		<g id="eye-off-2_5_">
			<g id="eye-off-2-2_5_">
				<path class="st0" d="M239,428.2l-18.3,57.1c-2.4,9.9,3.5,20.3,13.1,23.3c8.6,2.6,17.5-1.6,20.9-9.9l19.1-58.9"/>
			</g>
		</g>
	</g>
	<g id="Layer_2_4_" class="st3">
		<g id="eye-off-2_4_">
			<g id="eye-off-2-2_4_">
				<path class="st0" d="M165.4,380.5l-40.6,44.1c-6.3,8-5.4,19.9,2.1,26.6c6.7,6,16.5,5.9,23.1-0.2l42.1-45.4"/>
			</g>
		</g>
	</g>
</g>
</svg>
